<svg xmlns="http://www.w3.org/2000/svg" xmlns:xlink="http://www.w3.org/1999/xlink" width="1170" zoomAndPan="magnify" viewBox="0 0 877.5 1898.999944" height="2532" preserveAspectRatio="xMidYMid meet" version="1.0"><defs><g/><clipPath id="dc90b823bc"><path d="M 0 0.539062 L 877 0.539062 L 877 1898.457031 L 0 1898.457031 Z M 0 0.539062 " clip-rule="nonzero"/></clipPath><clipPath id="bf4b48cdcd"><path d="M 0 1057.136719 L 324.75 1057.136719 L 324.75 1205.636719 L 0 1205.636719 Z M 0 1057.136719 " clip-rule="nonzero"/></clipPath><clipPath id="992bc147d2"><path d="M 0 249.90625 L 324.75 249.90625 L 324.75 398.40625 L 0 398.40625 Z M 0 249.90625 " clip-rule="nonzero"/></clipPath><clipPath id="867d6702b5"><path d="M 0.0585938 398.140625 L 324.75 398.140625 L 324.75 546.640625 L 0.0585938 546.640625 Z M 0.0585938 398.140625 " clip-rule="nonzero"/></clipPath><clipPath id="38dded520d"><path d="M 324.816406 249.90625 L 649.566406 249.90625 L 649.566406 398.40625 L 324.816406 398.40625 Z M 324.816406 249.90625 " clip-rule="nonzero"/></clipPath><clipPath id="31a1c80e88"><path d="M 649.632812 249.90625 L 877 249.90625 L 877 398.40625 L 649.632812 398.40625 Z M 649.632812 249.90625 " clip-rule="nonzero"/></clipPath><clipPath id="c32c93a636"><path d="M 324.875 398.140625 L 649.566406 398.140625 L 649.566406 546.640625 L 324.875 546.640625 Z M 324.875 398.140625 " clip-rule="nonzero"/></clipPath><clipPath id="a47e486ca1"><path d="M 649.691406 398.140625 L 877 398.140625 L 877 546.640625 L 649.691406 546.640625 Z M 649.691406 398.140625 " clip-rule="nonzero"/></clipPath><clipPath id="be0ac94e49"><path d="M 0 546.375 L 324.75 546.375 L 324.75 694.875 L 0 694.875 Z M 0 546.375 " clip-rule="nonzero"/></clipPath><clipPath id="98caa5e140"><path d="M 0.0585938 694.609375 L 324.75 694.609375 L 324.75 843.109375 L 0.0585938 843.109375 Z M 0.0585938 694.609375 " clip-rule="nonzero"/></clipPath><clipPath id="2022af54b7"><path d="M 324.816406 546.375 L 649.566406 546.375 L 649.566406 694.875 L 324.816406 694.875 Z M 324.816406 546.375 " clip-rule="nonzero"/></clipPath><clipPath id="cbf2ef8873"><path d="M 649.632812 546.375 L 877 546.375 L 877 694.875 L 649.632812 694.875 Z M 649.632812 546.375 " clip-rule="nonzero"/></clipPath><clipPath id="d9d6553d84"><path d="M 324.875 694.609375 L 649.566406 694.609375 L 649.566406 843.109375 L 324.875 843.109375 Z M 324.875 694.609375 " clip-rule="nonzero"/></clipPath><clipPath id="a902e5701a"><path d="M 649.691406 694.609375 L 877 694.609375 L 877 843.109375 L 649.691406 843.109375 Z M 649.691406 694.609375 " clip-rule="nonzero"/></clipPath><clipPath id="a83bda9bee"><path d="M 0 1353.996094 L 324.75 1353.996094 L 324.75 1502.496094 L 0 1502.496094 Z M 0 1353.996094 " clip-rule="nonzero"/></clipPath><clipPath id="aca26d0e39"><path d="M 0.0585938 1502.230469 L 324.75 1502.230469 L 324.75 1650.730469 L 0.0585938 1650.730469 Z M 0.0585938 1502.230469 " clip-rule="nonzero"/></clipPath><clipPath id="d6d0699af6"><path d="M 324.816406 1353.996094 L 649.566406 1353.996094 L 649.566406 1502.496094 L 324.816406 1502.496094 Z M 324.816406 1353.996094 " clip-rule="nonzero"/></clipPath><clipPath id="55b72a04ed"><path d="M 649.632812 1353.996094 L 877 1353.996094 L 877 1502.496094 L 649.632812 1502.496094 Z M 649.632812 1353.996094 " clip-rule="nonzero"/></clipPath><clipPath id="f917319e29"><path d="M 324.875 1502.230469 L 649.566406 1502.230469 L 649.566406 1650.730469 L 324.875 1650.730469 Z M 324.875 1502.230469 " clip-rule="nonzero"/></clipPath><clipPath id="9909a4fff0"><path d="M 649.691406 1502.230469 L 877 1502.230469 L 877 1650.730469 L 649.691406 1650.730469 Z M 649.691406 1502.230469 " clip-rule="nonzero"/></clipPath><clipPath id="a632faeb5b"><path d="M 0.0585938 1205.371094 L 324.75 1205.371094 L 324.75 1353.871094 L 0.0585938 1353.871094 Z M 0.0585938 1205.371094 " clip-rule="nonzero"/></clipPath><clipPath id="62b0a31afd"><path d="M 324.816406 1057.136719 L 649.566406 1057.136719 L 649.566406 1205.636719 L 324.816406 1205.636719 Z M 324.816406 1057.136719 " clip-rule="nonzero"/></clipPath><clipPath id="f218dd12d3"><path d="M 649.632812 1057.136719 L 877 1057.136719 L 877 1205.636719 L 649.632812 1205.636719 Z M 649.632812 1057.136719 " clip-rule="nonzero"/></clipPath><clipPath id="082fa8101a"><path d="M 324.875 1205.371094 L 649.566406 1205.371094 L 649.566406 1353.871094 L 324.875 1353.871094 Z M 324.875 1205.371094 " clip-rule="nonzero"/></clipPath><clipPath id="e5383b5444"><path d="M 649.691406 1205.371094 L 877 1205.371094 L 877 1353.871094 L 649.691406 1353.871094 Z M 649.691406 1205.371094 " clip-rule="nonzero"/></clipPath><clipPath id="817998905b"><path d="M 0 801.804688 L 324.75 801.804688 L 324.75 950.304688 L 0 950.304688 Z M 0 801.804688 " clip-rule="nonzero"/></clipPath><clipPath id="9a29c81905"><path d="M 0.0585938 950.039062 L 324.75 950.039062 L 324.75 1098.539062 L 0.0585938 1098.539062 Z M 0.0585938 950.039062 " clip-rule="nonzero"/></clipPath><clipPath id="4bebe78f5f"><path d="M 324.816406 801.804688 L 649.566406 801.804688 L 649.566406 950.304688 L 324.816406 950.304688 Z M 324.816406 801.804688 " clip-rule="nonzero"/></clipPath><clipPath id="2b52f5f7fc"><path d="M 649.632812 801.804688 L 877 801.804688 L 877 950.304688 L 649.632812 950.304688 Z M 649.632812 801.804688 " clip-rule="nonzero"/></clipPath><clipPath id="01c024e951"><path d="M 324.875 950.039062 L 649.566406 950.039062 L 649.566406 1098.539062 L 324.875 1098.539062 Z M 324.875 950.039062 " clip-rule="nonzero"/></clipPath><clipPath id="e95c2d8940"><path d="M 649.691406 950.039062 L 877 950.039062 L 877 1098.539062 L 649.691406 1098.539062 Z M 649.691406 950.039062 " clip-rule="nonzero"/></clipPath><clipPath id="810c6317e9"><path d="M 207.28125 875.921875 L 671 875.921875 L 671 1024 L 207.28125 1024 Z M 207.28125 875.921875 " clip-rule="nonzero"/></clipPath><clipPath id="76aa47938f"><path d="M 281.398438 875.921875 L 596.101562 875.921875 C 637.035156 875.921875 670.21875 909.105469 670.21875 950.039062 C 670.21875 990.972656 637.035156 1024.15625 596.101562 1024.15625 L 281.398438 1024.15625 C 240.464844 1024.15625 207.28125 990.972656 207.28125 950.039062 C 207.28125 909.105469 240.464844 875.921875 281.398438 875.921875 " clip-rule="nonzero"/></clipPath><clipPath id="cd648a58ad"><path d="M 0 0.539062 L 324.75 0.539062 L 324.75 142.921875 L 0 142.921875 Z M 0 0.539062 " clip-rule="nonzero"/></clipPath><clipPath id="b70c026ba1"><path d="M 0.0585938 142.65625 L 324.75 142.65625 L 324.75 291.15625 L 0.0585938 291.15625 Z M 0.0585938 142.65625 " clip-rule="nonzero"/></clipPath><clipPath id="7a0dc5d69a"><path d="M 324.816406 0.539062 L 649.566406 0.539062 L 649.566406 142.921875 L 324.816406 142.921875 Z M 324.816406 0.539062 " clip-rule="nonzero"/></clipPath><clipPath id="4b9e666c60"><path d="M 649.632812 0.539062 L 877 0.539062 L 877 142.921875 L 649.632812 142.921875 Z M 649.632812 0.539062 " clip-rule="nonzero"/></clipPath><clipPath id="e664ff94e3"><path d="M 324.875 142.65625 L 649.566406 142.65625 L 649.566406 291.15625 L 324.875 291.15625 Z M 324.875 142.65625 " clip-rule="nonzero"/></clipPath><clipPath id="b6809b588e"><path d="M 649.691406 142.65625 L 877 142.65625 L 877 291.15625 L 649.691406 291.15625 Z M 649.691406 142.65625 " clip-rule="nonzero"/></clipPath><clipPath id="22cc3e507f"><path d="M 0 1609.480469 L 324.75 1609.480469 L 324.75 1757.980469 L 0 1757.980469 Z M 0 1609.480469 " clip-rule="nonzero"/></clipPath><clipPath id="4994b78de8"><path d="M 0.0585938 1757.714844 L 324.75 1757.714844 L 324.75 1898.457031 L 0.0585938 1898.457031 Z M 0.0585938 1757.714844 " clip-rule="nonzero"/></clipPath><clipPath id="e42044b6f4"><path d="M 324.816406 1609.480469 L 649.566406 1609.480469 L 649.566406 1757.980469 L 324.816406 1757.980469 Z M 324.816406 1609.480469 " clip-rule="nonzero"/></clipPath><clipPath id="b2cc79b153"><path d="M 649.632812 1609.480469 L 877 1609.480469 L 877 1757.980469 L 649.632812 1757.980469 Z M 649.632812 1609.480469 " clip-rule="nonzero"/></clipPath><clipPath id="573076f2a0"><path d="M 324.875 1757.714844 L 649.566406 1757.714844 L 649.566406 1898.457031 L 324.875 1898.457031 Z M 324.875 1757.714844 " clip-rule="nonzero"/></clipPath><clipPath id="06b6f1bf45"><path d="M 649.691406 1757.714844 L 877 1757.714844 L 877 1898.457031 L 649.691406 1898.457031 Z M 649.691406 1757.714844 " clip-rule="nonzero"/></clipPath></defs><g clip-path="url(#dc90b823bc)"><path fill="#ffffff" d="M 0 0.539062 L 877.5 0.539062 L 877.5 9525.539062 L 0 9525.539062 Z M 0 0.539062 " fill-opacity="1" fill-rule="nonzero"/><path fill="#ffffff" d="M 0 0.539062 L 877.5 0.539062 L 877.5 1899.539062 L 0 1899.539062 Z M 0 0.539062 " fill-opacity="1" fill-rule="nonzero"/><path fill="#fffefb" d="M 0 0.539062 L 877.5 0.539062 L 877.5 1899.539062 L 0 1899.539062 Z M 0 0.539062 " fill-opacity="1" fill-rule="nonzero"/></g><g clip-path="url(#bf4b48cdcd)"><path stroke-linecap="butt" transform="matrix(0.723298, 0, 0, 0.724744, -27.382191, 1019.958966)" fill="none" stroke-linejoin="miter" d="M 41.400226 151.802069 C 126.000798 232.202257 234.002219 252.50038 484.001906 91.802412 " stroke="#000000" stroke-width="8" stroke-opacity="1" stroke-miterlimit="4"/><path stroke-linecap="butt" transform="matrix(0.723298, 0, 0, 0.724744, -27.382191, 1019.958966)" fill="none" stroke-linejoin="miter" d="M 41.400226 155.698921 C 126.000798 75.298733 234.002219 55.00061 484.001906 215.698578 " stroke="#000000" stroke-width="8" stroke-opacity="1" stroke-miterlimit="4"/></g><g clip-path="url(#992bc147d2)"><path stroke-linecap="butt" transform="matrix(0.723298, 0, 0, 0.724744, -27.382191, 212.728326)" fill="none" stroke-linejoin="miter" d="M 41.400226 151.802305 C 126.000798 232.202492 234.002219 252.500616 484.001906 91.802647 " stroke="#000000" stroke-width="8" stroke-opacity="1" stroke-miterlimit="4"/><path stroke-linecap="butt" transform="matrix(0.723298, 0, 0, 0.724744, -27.382191, 212.728326)" fill="none" stroke-linejoin="miter" d="M 41.400226 155.699156 C 126.000798 75.298969 234.002219 55.000845 484.001906 215.698814 " stroke="#000000" stroke-width="8" stroke-opacity="1" stroke-miterlimit="4"/></g><g clip-path="url(#867d6702b5)"><path stroke-linecap="butt" transform="matrix(-0.723298, 0, 0, 0.724744, 352.190762, 360.962493)" fill="none" stroke-linejoin="miter" d="M 41.400194 151.802592 C 126.000767 232.19739 234.002187 252.500903 484.001875 91.797545 " stroke="#000000" stroke-width="8" stroke-opacity="1" stroke-miterlimit="4"/><path stroke-linecap="butt" transform="matrix(-0.723298, 0, 0, 0.724744, 352.190762, 360.962493)" fill="none" stroke-linejoin="miter" d="M 41.400194 155.699444 C 126.000767 75.299256 234.002187 55.001133 484.001875 215.699101 " stroke="#000000" stroke-width="8" stroke-opacity="1" stroke-miterlimit="4"/></g><g clip-path="url(#38dded520d)"><path stroke-linecap="butt" transform="matrix(0.723298, 0, 0, 0.724744, 297.433587, 212.728326)" fill="none" stroke-linejoin="miter" d="M 41.401095 151.802305 C 126.001667 232.202492 233.997687 252.500616 483.997375 91.802647 " stroke="#000000" stroke-width="8" stroke-opacity="1" stroke-miterlimit="4"/><path stroke-linecap="butt" transform="matrix(0.723298, 0, 0, 0.724744, 297.433587, 212.728326)" fill="none" stroke-linejoin="miter" d="M 41.401095 155.699156 C 126.001667 75.298969 233.997687 55.000845 483.997375 215.698814 " stroke="#000000" stroke-width="8" stroke-opacity="1" stroke-miterlimit="4"/></g><g clip-path="url(#31a1c80e88)"><path stroke-linecap="butt" transform="matrix(0.723298, 0, 0, 0.724744, 622.24936, 212.728326)" fill="none" stroke-linejoin="miter" d="M 41.401969 151.802305 C 126.002542 232.202492 233.998562 252.500616 483.99825 91.802647 " stroke="#000000" stroke-width="8" stroke-opacity="1" stroke-miterlimit="4"/><path stroke-linecap="butt" transform="matrix(0.723298, 0, 0, 0.724744, 622.24936, 212.728326)" fill="none" stroke-linejoin="miter" d="M 41.401969 155.699156 C 126.002542 75.298969 233.998562 55.000845 483.99825 215.698814 " stroke="#000000" stroke-width="8" stroke-opacity="1" stroke-miterlimit="4"/></g><g clip-path="url(#c32c93a636)"><path stroke-linecap="butt" transform="matrix(-0.723298, 0, 0, 0.724744, 677.006533, 360.962493)" fill="none" stroke-linejoin="miter" d="M 41.399316 151.802592 C 125.999888 232.19739 234.001309 252.500903 484.000997 91.797545 " stroke="#000000" stroke-width="8" stroke-opacity="1" stroke-miterlimit="4"/><path stroke-linecap="butt" transform="matrix(-0.723298, 0, 0, 0.724744, 677.006533, 360.962493)" fill="none" stroke-linejoin="miter" d="M 41.399316 155.699444 C 125.999888 75.299256 234.001309 55.001133 484.000997 215.699101 " stroke="#000000" stroke-width="8" stroke-opacity="1" stroke-miterlimit="4"/></g><g clip-path="url(#a47e486ca1)"><path stroke-linecap="butt" transform="matrix(-0.723298, 0, 0, 0.724744, 1001.822407, 360.962493)" fill="none" stroke-linejoin="miter" d="M 41.39858 151.802592 C 125.999153 232.19739 234.000573 252.500903 484.000261 91.797545 " stroke="#000000" stroke-width="8" stroke-opacity="1" stroke-miterlimit="4"/><path stroke-linecap="butt" transform="matrix(-0.723298, 0, 0, 0.724744, 1001.822407, 360.962493)" fill="none" stroke-linejoin="miter" d="M 41.39858 155.699444 C 125.999153 75.299256 234.000573 55.001133 484.000261 215.699101 " stroke="#000000" stroke-width="8" stroke-opacity="1" stroke-miterlimit="4"/></g><g clip-path="url(#be0ac94e49)"><path stroke-linecap="butt" transform="matrix(0.723298, 0, 0, 0.724744, -27.382191, 509.196564)" fill="none" stroke-linejoin="miter" d="M 41.400226 151.797622 C 126.000798 232.19781 234.002219 252.501323 484.001906 91.797965 " stroke="#000000" stroke-width="8" stroke-opacity="1" stroke-miterlimit="4"/><path stroke-linecap="butt" transform="matrix(0.723298, 0, 0, 0.724744, -27.382191, 509.196564)" fill="none" stroke-linejoin="miter" d="M 41.400226 155.699863 C 126.000798 75.299676 234.002219 55.001552 484.001906 215.699521 " stroke="#000000" stroke-width="8" stroke-opacity="1" stroke-miterlimit="4"/></g><g clip-path="url(#98caa5e140)"><path stroke-linecap="butt" transform="matrix(-0.723298, 0, 0, 0.724744, 352.190762, 657.430678)" fill="none" stroke-linejoin="miter" d="M 41.400194 151.797982 C 126.000767 232.19817 234.002187 252.501683 484.001875 91.798325 " stroke="#000000" stroke-width="8" stroke-opacity="1" stroke-miterlimit="4"/><path stroke-linecap="butt" transform="matrix(-0.723298, 0, 0, 0.724744, 352.190762, 657.430678)" fill="none" stroke-linejoin="miter" d="M 41.400194 155.700224 C 126.000767 75.300036 234.002187 55.001913 484.001875 215.699881 " stroke="#000000" stroke-width="8" stroke-opacity="1" stroke-miterlimit="4"/></g><g clip-path="url(#2022af54b7)"><path stroke-linecap="butt" transform="matrix(0.723298, 0, 0, 0.724744, 297.433587, 509.196564)" fill="none" stroke-linejoin="miter" d="M 41.401095 151.797622 C 126.001667 232.19781 233.997687 252.501323 483.997375 91.797965 " stroke="#000000" stroke-width="8" stroke-opacity="1" stroke-miterlimit="4"/><path stroke-linecap="butt" transform="matrix(0.723298, 0, 0, 0.724744, 297.433587, 509.196564)" fill="none" stroke-linejoin="miter" d="M 41.401095 155.699863 C 126.001667 75.299676 233.997687 55.001552 483.997375 215.699521 " stroke="#000000" stroke-width="8" stroke-opacity="1" stroke-miterlimit="4"/></g><g clip-path="url(#cbf2ef8873)"><path stroke-linecap="butt" transform="matrix(0.723298, 0, 0, 0.724744, 622.24936, 509.196564)" fill="none" stroke-linejoin="miter" d="M 41.401969 151.797622 C 126.002542 232.19781 233.998562 252.501323 483.99825 91.797965 " stroke="#000000" stroke-width="8" stroke-opacity="1" stroke-miterlimit="4"/><path stroke-linecap="butt" transform="matrix(0.723298, 0, 0, 0.724744, 622.24936, 509.196564)" fill="none" stroke-linejoin="miter" d="M 41.401969 155.699863 C 126.002542 75.299676 233.998562 55.001552 483.99825 215.699521 " stroke="#000000" stroke-width="8" stroke-opacity="1" stroke-miterlimit="4"/></g><g clip-path="url(#d9d6553d84)"><path stroke-linecap="butt" transform="matrix(-0.723298, 0, 0, 0.724744, 677.006533, 657.430678)" fill="none" stroke-linejoin="miter" d="M 41.399316 151.797982 C 125.999888 232.19817 234.001309 252.501683 484.000997 91.798325 " stroke="#000000" stroke-width="8" stroke-opacity="1" stroke-miterlimit="4"/><path stroke-linecap="butt" transform="matrix(-0.723298, 0, 0, 0.724744, 677.006533, 657.430678)" fill="none" stroke-linejoin="miter" d="M 41.399316 155.700224 C 125.999888 75.300036 234.001309 55.001913 484.000997 215.699881 " stroke="#000000" stroke-width="8" stroke-opacity="1" stroke-miterlimit="4"/></g><g clip-path="url(#a902e5701a)"><path stroke-linecap="butt" transform="matrix(-0.723298, 0, 0, 0.724744, 1001.822407, 657.430678)" fill="none" stroke-linejoin="miter" d="M 41.39858 151.797982 C 125.999153 232.19817 234.000573 252.501683 484.000261 91.798325 " stroke="#000000" stroke-width="8" stroke-opacity="1" stroke-miterlimit="4"/><path stroke-linecap="butt" transform="matrix(-0.723298, 0, 0, 0.724744, 1001.822407, 657.430678)" fill="none" stroke-linejoin="miter" d="M 41.39858 155.700224 C 125.999153 75.300036 234.000573 55.001913 484.000261 215.699881 " stroke="#000000" stroke-width="8" stroke-opacity="1" stroke-miterlimit="4"/></g><g clip-path="url(#a83bda9bee)"><path stroke-linecap="butt" transform="matrix(0.723298, 0, 0, 0.724744, -27.382191, 1316.815221)" fill="none" stroke-linejoin="miter" d="M 41.400226 151.800984 C 126.000798 232.201172 234.002219 252.499295 484.001906 91.801327 " stroke="#000000" stroke-width="8" stroke-opacity="1" stroke-miterlimit="4"/><path stroke-linecap="butt" transform="matrix(0.723298, 0, 0, 0.724744, -27.382191, 1316.815221)" fill="none" stroke-linejoin="miter" d="M 41.400226 155.697836 C 126.000798 75.297649 234.002219 54.999525 484.001906 215.697493 " stroke="#000000" stroke-width="8" stroke-opacity="1" stroke-miterlimit="4"/></g><g clip-path="url(#aca26d0e39)"><path stroke-linecap="butt" transform="matrix(-0.723298, 0, 0, 0.724744, 352.190762, 1465.049359)" fill="none" stroke-linejoin="miter" d="M 41.400194 151.801312 C 126.000767 232.201499 234.002187 252.499623 484.001875 91.801654 " stroke="#000000" stroke-width="8" stroke-opacity="1" stroke-miterlimit="4"/><path stroke-linecap="butt" transform="matrix(-0.723298, 0, 0, 0.724744, 352.190762, 1465.049359)" fill="none" stroke-linejoin="miter" d="M 41.400194 155.698163 C 126.000767 75.297976 234.002187 54.999852 484.001875 215.697821 " stroke="#000000" stroke-width="8" stroke-opacity="1" stroke-miterlimit="4"/></g><g clip-path="url(#d6d0699af6)"><path stroke-linecap="butt" transform="matrix(0.723298, 0, 0, 0.724744, 297.433587, 1316.815221)" fill="none" stroke-linejoin="miter" d="M 41.401095 151.800984 C 126.001667 232.201172 233.997687 252.499295 483.997375 91.801327 " stroke="#000000" stroke-width="8" stroke-opacity="1" stroke-miterlimit="4"/><path stroke-linecap="butt" transform="matrix(0.723298, 0, 0, 0.724744, 297.433587, 1316.815221)" fill="none" stroke-linejoin="miter" d="M 41.401095 155.697836 C 126.001667 75.297649 233.997687 54.999525 483.997375 215.697493 " stroke="#000000" stroke-width="8" stroke-opacity="1" stroke-miterlimit="4"/></g><g clip-path="url(#55b72a04ed)"><path stroke-linecap="butt" transform="matrix(0.723298, 0, 0, 0.724744, 622.24936, 1316.815221)" fill="none" stroke-linejoin="miter" d="M 41.401969 151.800984 C 126.002542 232.201172 233.998562 252.499295 483.99825 91.801327 " stroke="#000000" stroke-width="8" stroke-opacity="1" stroke-miterlimit="4"/><path stroke-linecap="butt" transform="matrix(0.723298, 0, 0, 0.724744, 622.24936, 1316.815221)" fill="none" stroke-linejoin="miter" d="M 41.401969 155.697836 C 126.002542 75.297649 233.998562 54.999525 483.99825 215.697493 " stroke="#000000" stroke-width="8" stroke-opacity="1" stroke-miterlimit="4"/></g><g clip-path="url(#f917319e29)"><path stroke-linecap="butt" transform="matrix(-0.723298, 0, 0, 0.724744, 677.006533, 1465.049359)" fill="none" stroke-linejoin="miter" d="M 41.399316 151.801312 C 125.999888 232.201499 234.001309 252.499623 484.000997 91.801654 " stroke="#000000" stroke-width="8" stroke-opacity="1" stroke-miterlimit="4"/><path stroke-linecap="butt" transform="matrix(-0.723298, 0, 0, 0.724744, 677.006533, 1465.049359)" fill="none" stroke-linejoin="miter" d="M 41.399316 155.698163 C 125.999888 75.297976 234.001309 54.999852 484.000997 215.697821 " stroke="#000000" stroke-width="8" stroke-opacity="1" stroke-miterlimit="4"/></g><g clip-path="url(#9909a4fff0)"><path stroke-linecap="butt" transform="matrix(-0.723298, 0, 0, 0.724744, 1001.822407, 1465.049359)" fill="none" stroke-linejoin="miter" d="M 41.39858 151.801312 C 125.999153 232.201499 234.000573 252.499623 484.000261 91.801654 " stroke="#000000" stroke-width="8" stroke-opacity="1" stroke-miterlimit="4"/><path stroke-linecap="butt" transform="matrix(-0.723298, 0, 0, 0.724744, 1001.822407, 1465.049359)" fill="none" stroke-linejoin="miter" d="M 41.39858 155.698163 C 125.999153 75.297976 234.000573 54.999852 484.000261 215.697821 " stroke="#000000" stroke-width="8" stroke-opacity="1" stroke-miterlimit="4"/></g><g clip-path="url(#a632faeb5b)"><path stroke-linecap="butt" transform="matrix(-0.723298, 0, 0, 0.724744, 352.190762, 1168.19308)" fill="none" stroke-linejoin="miter" d="M 41.400194 151.802429 C 126.000767 232.202617 234.002187 252.50074 484.001875 91.797382 " stroke="#000000" stroke-width="8" stroke-opacity="1" stroke-miterlimit="4"/><path stroke-linecap="butt" transform="matrix(-0.723298, 0, 0, 0.724744, 352.190762, 1168.19308)" fill="none" stroke-linejoin="miter" d="M 41.400194 155.699281 C 126.000767 75.299093 234.002187 55.00097 484.001875 215.698938 " stroke="#000000" stroke-width="8" stroke-opacity="1" stroke-miterlimit="4"/></g><g clip-path="url(#62b0a31afd)"><path stroke-linecap="butt" transform="matrix(0.723298, 0, 0, 0.724744, 297.433587, 1019.958966)" fill="none" stroke-linejoin="miter" d="M 41.401095 151.802069 C 126.001667 232.202257 233.997687 252.50038 483.997375 91.802412 " stroke="#000000" stroke-width="8" stroke-opacity="1" stroke-miterlimit="4"/><path stroke-linecap="butt" transform="matrix(0.723298, 0, 0, 0.724744, 297.433587, 1019.958966)" fill="none" stroke-linejoin="miter" d="M 41.401095 155.698921 C 126.001667 75.298733 233.997687 55.00061 483.997375 215.698578 " stroke="#000000" stroke-width="8" stroke-opacity="1" stroke-miterlimit="4"/></g><g clip-path="url(#f218dd12d3)"><path stroke-linecap="butt" transform="matrix(0.723298, 0, 0, 0.724744, 622.24936, 1019.958966)" fill="none" stroke-linejoin="miter" d="M 41.401969 151.802069 C 126.002542 232.202257 233.998562 252.50038 483.99825 91.802412 " stroke="#000000" stroke-width="8" stroke-opacity="1" stroke-miterlimit="4"/><path stroke-linecap="butt" transform="matrix(0.723298, 0, 0, 0.724744, 622.24936, 1019.958966)" fill="none" stroke-linejoin="miter" d="M 41.401969 155.698921 C 126.002542 75.298733 233.998562 55.00061 483.99825 215.698578 " stroke="#000000" stroke-width="8" stroke-opacity="1" stroke-miterlimit="4"/></g><g clip-path="url(#082fa8101a)"><path stroke-linecap="butt" transform="matrix(-0.723298, 0, 0, 0.724744, 677.006533, 1168.19308)" fill="none" stroke-linejoin="miter" d="M 41.399316 151.802429 C 125.999888 232.202617 234.001309 252.50074 484.000997 91.797382 " stroke="#000000" stroke-width="8" stroke-opacity="1" stroke-miterlimit="4"/><path stroke-linecap="butt" transform="matrix(-0.723298, 0, 0, 0.724744, 677.006533, 1168.19308)" fill="none" stroke-linejoin="miter" d="M 41.399316 155.699281 C 125.999888 75.299093 234.001309 55.00097 484.000997 215.698938 " stroke="#000000" stroke-width="8" stroke-opacity="1" stroke-miterlimit="4"/></g><g clip-path="url(#e5383b5444)"><path stroke-linecap="butt" transform="matrix(-0.723298, 0, 0, 0.724744, 1001.822407, 1168.19308)" fill="none" stroke-linejoin="miter" d="M 41.39858 151.802429 C 125.999153 232.202617 234.000573 252.50074 484.000261 91.797382 " stroke="#000000" stroke-width="8" stroke-opacity="1" stroke-miterlimit="4"/><path stroke-linecap="butt" transform="matrix(-0.723298, 0, 0, 0.724744, 1001.822407, 1168.19308)" fill="none" stroke-linejoin="miter" d="M 41.39858 155.699281 C 125.999153 75.299093 234.000573 55.00097 484.000261 215.698938 " stroke="#000000" stroke-width="8" stroke-opacity="1" stroke-miterlimit="4"/></g><g clip-path="url(#817998905b)"><path stroke-linecap="butt" transform="matrix(0.723298, 0, 0, 0.724744, -27.382191, 764.627153)" fill="none" stroke-linejoin="miter" d="M 41.400226 151.801768 C 126.000798 232.201956 234.002219 252.500079 484.001906 91.802111 " stroke="#000000" stroke-width="8" stroke-opacity="1" stroke-miterlimit="4"/><path stroke-linecap="butt" transform="matrix(0.723298, 0, 0, 0.724744, -27.382191, 764.627153)" fill="none" stroke-linejoin="miter" d="M 41.400226 155.69862 C 126.000798 75.298432 234.002219 55.000309 484.001906 215.698277 " stroke="#000000" stroke-width="8" stroke-opacity="1" stroke-miterlimit="4"/></g><g clip-path="url(#9a29c81905)"><path stroke-linecap="butt" transform="matrix(-0.723298, 0, 0, 0.724744, 352.190762, 912.861291)" fill="none" stroke-linejoin="miter" d="M 41.400194 151.802095 C 126.000767 232.202283 234.002187 252.500406 484.001875 91.802438 " stroke="#000000" stroke-width="8" stroke-opacity="1" stroke-miterlimit="4"/><path stroke-linecap="butt" transform="matrix(-0.723298, 0, 0, 0.724744, 352.190762, 912.861291)" fill="none" stroke-linejoin="miter" d="M 41.400194 155.698947 C 126.000767 75.298759 234.002187 55.000636 484.001875 215.698604 " stroke="#000000" stroke-width="8" stroke-opacity="1" stroke-miterlimit="4"/></g><g clip-path="url(#4bebe78f5f)"><path stroke-linecap="butt" transform="matrix(0.723298, 0, 0, 0.724744, 297.433587, 764.627153)" fill="none" stroke-linejoin="miter" d="M 41.401095 151.801768 C 126.001667 232.201956 233.997687 252.500079 483.997375 91.802111 " stroke="#000000" stroke-width="8" stroke-opacity="1" stroke-miterlimit="4"/><path stroke-linecap="butt" transform="matrix(0.723298, 0, 0, 0.724744, 297.433587, 764.627153)" fill="none" stroke-linejoin="miter" d="M 41.401095 155.69862 C 126.001667 75.298432 233.997687 55.000309 483.997375 215.698277 " stroke="#000000" stroke-width="8" stroke-opacity="1" stroke-miterlimit="4"/></g><g clip-path="url(#2b52f5f7fc)"><path stroke-linecap="butt" transform="matrix(0.723298, 0, 0, 0.724744, 622.24936, 764.627153)" fill="none" stroke-linejoin="miter" d="M 41.401969 151.801768 C 126.002542 232.201956 233.998562 252.500079 483.99825 91.802111 " stroke="#000000" stroke-width="8" stroke-opacity="1" stroke-miterlimit="4"/><path stroke-linecap="butt" transform="matrix(0.723298, 0, 0, 0.724744, 622.24936, 764.627153)" fill="none" stroke-linejoin="miter" d="M 41.401969 155.69862 C 126.002542 75.298432 233.998562 55.000309 483.99825 215.698277 " stroke="#000000" stroke-width="8" stroke-opacity="1" stroke-miterlimit="4"/></g><g clip-path="url(#01c024e951)"><path stroke-linecap="butt" transform="matrix(-0.723298, 0, 0, 0.724744, 677.006533, 912.861291)" fill="none" stroke-linejoin="miter" d="M 41.399316 151.802095 C 125.999888 232.202283 234.001309 252.500406 484.000997 91.802438 " stroke="#000000" stroke-width="8" stroke-opacity="1" stroke-miterlimit="4"/><path stroke-linecap="butt" transform="matrix(-0.723298, 0, 0, 0.724744, 677.006533, 912.861291)" fill="none" stroke-linejoin="miter" d="M 41.399316 155.698947 C 125.999888 75.298759 234.001309 55.000636 484.000997 215.698604 " stroke="#000000" stroke-width="8" stroke-opacity="1" stroke-miterlimit="4"/></g><g clip-path="url(#e95c2d8940)"><path stroke-linecap="butt" transform="matrix(-0.723298, 0, 0, 0.724744, 1001.822407, 912.861291)" fill="none" stroke-linejoin="miter" d="M 41.39858 151.802095 C 125.999153 232.202283 234.000573 252.500406 484.000261 91.802438 " stroke="#000000" stroke-width="8" stroke-opacity="1" stroke-miterlimit="4"/><path stroke-linecap="butt" transform="matrix(-0.723298, 0, 0, 0.724744, 1001.822407, 912.861291)" fill="none" stroke-linejoin="miter" d="M 41.39858 155.698947 C 125.999153 75.298759 234.000573 55.000636 484.000261 215.698604 " stroke="#000000" stroke-width="8" stroke-opacity="1" stroke-miterlimit="4"/></g><g clip-path="url(#810c6317e9)"><g clip-path="url(#76aa47938f)"><path fill="#ffffff" d="M 207.28125 875.921875 L 672.082031 875.921875 L 672.082031 1024 L 207.28125 1024 Z M 207.28125 875.921875 " fill-opacity="1" fill-rule="nonzero"/></g></g><g fill="#000000" fill-opacity="1"><g transform="translate(231.120442, 1003.62799)"><g><path d="M 27.089844 -31.347656 L 40.636719 -31.347656 C 54.824219 -31.347656 67.46875 -41.796875 67.46875 -59.597656 C 67.46875 -76.238281 54.824219 -87.71875 40.636719 -87.71875 L 7.738281 -87.71875 L 7.738281 0 L 27.089844 0 Z M 37.410156 -72.496094 C 43.085938 -72.496094 49.019531 -67.597656 49.019531 -59.597656 C 49.019531 -51.214844 43.085938 -46.570312 37.410156 -46.570312 L 27.089844 -46.570312 L 27.089844 -72.496094 Z M 37.410156 -72.496094 "/></g></g></g><g fill="#000000" fill-opacity="1"><g transform="translate(309.55241, 1003.62799)"><g><path d="M 58.566406 -17.542969 L 27.089844 -17.542969 L 27.089844 -35.21875 L 57.277344 -35.21875 L 57.277344 -52.761719 L 27.089844 -52.761719 L 27.089844 -70.175781 L 58.566406 -70.175781 L 58.566406 -87.71875 L 7.738281 -87.71875 L 7.738281 0 L 58.566406 0 Z M 58.566406 -17.542969 "/></g></g></g><g fill="#000000" fill-opacity="1"><g transform="translate(384.888374, 1003.62799)"><g><path d="M 41.796875 -13.675781 C 32.25 -13.675781 23.992188 -18.445312 23.476562 -28.894531 L 3.871094 -28.894531 C 4 -7.480469 21.671875 2.0625 41.023438 2.0625 C 58.953125 2.0625 77.398438 -5.546875 77.398438 -26.1875 C 77.398438 -59.597656 26.703125 -48.375 26.703125 -63.984375 C 26.703125 -70.5625 34.3125 -73.144531 39.730469 -73.144531 C 49.40625 -73.144531 54.695312 -70.175781 55.726562 -61.015625 L 74.433594 -61.015625 C 73.789062 -81.011719 57.535156 -89.011719 39.472656 -89.011719 C 23.476562 -89.011719 6.707031 -80.496094 6.707031 -62.4375 C 6.707031 -30.058594 57.40625 -41.023438 57.40625 -23.992188 C 57.40625 -16.125 47.859375 -13.675781 41.796875 -13.675781 Z M 41.796875 -13.675781 "/></g></g></g><g fill="#000000" fill-opacity="1"><g transform="translate(475.188338, 1003.62799)"><g><path d="M 71.078125 -29.800781 C 67.46875 -22.058594 58.695312 -16.769531 49.664062 -16.769531 C 35.476562 -16.769531 24.121094 -28.894531 24.121094 -43.859375 C 24.121094 -58.695312 35.476562 -70.949219 49.664062 -70.949219 C 58.566406 -70.949219 67.339844 -66.046875 70.949219 -58.179688 L 92.492188 -58.179688 C 86.558594 -76.109375 69.660156 -89.011719 49.664062 -89.011719 C 24.769531 -89.011719 4.515625 -68.757812 4.515625 -43.859375 C 4.515625 -18.964844 24.769531 1.289062 49.664062 1.289062 C 69.660156 1.289062 86.6875 -11.738281 92.621094 -29.800781 Z M 71.078125 -29.800781 "/></g></g></g><g fill="#000000" fill-opacity="1"><g transform="translate(580.065283, 1003.62799)"><g><path d="M 58.566406 -17.542969 L 27.089844 -17.542969 L 27.089844 -35.21875 L 57.277344 -35.21875 L 57.277344 -52.761719 L 27.089844 -52.761719 L 27.089844 -70.175781 L 58.566406 -70.175781 L 58.566406 -87.71875 L 7.738281 -87.71875 L 7.738281 0 L 58.566406 0 Z M 58.566406 -17.542969 "/></g></g></g><g clip-path="url(#cd648a58ad)"><path stroke-linecap="butt" transform="matrix(0.723298, 0, 0, 0.724744, -27.382191, -42.755766)" fill="none" stroke-linejoin="miter" d="M 41.400226 151.801915 C 126.000798 232.202103 234.002219 252.500226 484.001906 91.802258 " stroke="#000000" stroke-width="8" stroke-opacity="1" stroke-miterlimit="4"/><path stroke-linecap="butt" transform="matrix(0.723298, 0, 0, 0.724744, -27.382191, -42.755766)" fill="none" stroke-linejoin="miter" d="M 41.400226 155.698767 C 126.000798 75.298579 234.002219 55.000456 484.001906 215.698424 " stroke="#000000" stroke-width="8" stroke-opacity="1" stroke-miterlimit="4"/></g><g clip-path="url(#b70c026ba1)"><path stroke-linecap="butt" transform="matrix(-0.723298, 0, 0, 0.724744, 352.190762, 105.478343)" fill="none" stroke-linejoin="miter" d="M 41.400194 151.802282 C 126.000767 232.20247 234.002187 252.500593 484.001875 91.802625 " stroke="#000000" stroke-width="8" stroke-opacity="1" stroke-miterlimit="4"/><path stroke-linecap="butt" transform="matrix(-0.723298, 0, 0, 0.724744, 352.190762, 105.478343)" fill="none" stroke-linejoin="miter" d="M 41.400194 155.699134 C 126.000767 75.298946 234.002187 55.000823 484.001875 215.698791 " stroke="#000000" stroke-width="8" stroke-opacity="1" stroke-miterlimit="4"/></g><g clip-path="url(#7a0dc5d69a)"><path stroke-linecap="butt" transform="matrix(0.723298, 0, 0, 0.724744, 297.433587, -42.755766)" fill="none" stroke-linejoin="miter" d="M 41.401095 151.801915 C 126.001667 232.202103 233.997687 252.500226 483.997375 91.802258 " stroke="#000000" stroke-width="8" stroke-opacity="1" stroke-miterlimit="4"/><path stroke-linecap="butt" transform="matrix(0.723298, 0, 0, 0.724744, 297.433587, -42.755766)" fill="none" stroke-linejoin="miter" d="M 41.401095 155.698767 C 126.001667 75.298579 233.997687 55.000456 483.997375 215.698424 " stroke="#000000" stroke-width="8" stroke-opacity="1" stroke-miterlimit="4"/></g><g clip-path="url(#4b9e666c60)"><path stroke-linecap="butt" transform="matrix(0.723298, 0, 0, 0.724744, 622.24936, -42.755766)" fill="none" stroke-linejoin="miter" d="M 41.401969 151.801915 C 126.002542 232.202103 233.998562 252.500226 483.99825 91.802258 " stroke="#000000" stroke-width="8" stroke-opacity="1" stroke-miterlimit="4"/><path stroke-linecap="butt" transform="matrix(0.723298, 0, 0, 0.724744, 622.24936, -42.755766)" fill="none" stroke-linejoin="miter" d="M 41.401969 155.698767 C 126.002542 75.298579 233.998562 55.000456 483.99825 215.698424 " stroke="#000000" stroke-width="8" stroke-opacity="1" stroke-miterlimit="4"/></g><g clip-path="url(#e664ff94e3)"><path stroke-linecap="butt" transform="matrix(-0.723298, 0, 0, 0.724744, 677.006533, 105.478343)" fill="none" stroke-linejoin="miter" d="M 41.399316 151.802282 C 125.999888 232.20247 234.001309 252.500593 484.000997 91.802625 " stroke="#000000" stroke-width="8" stroke-opacity="1" stroke-miterlimit="4"/><path stroke-linecap="butt" transform="matrix(-0.723298, 0, 0, 0.724744, 677.006533, 105.478343)" fill="none" stroke-linejoin="miter" d="M 41.399316 155.699134 C 125.999888 75.298946 234.001309 55.000823 484.000997 215.698791 " stroke="#000000" stroke-width="8" stroke-opacity="1" stroke-miterlimit="4"/></g><g clip-path="url(#b6809b588e)"><path stroke-linecap="butt" transform="matrix(-0.723298, 0, 0, 0.724744, 1001.822407, 105.478343)" fill="none" stroke-linejoin="miter" d="M 41.39858 151.802282 C 125.999153 232.20247 234.000573 252.500593 484.000261 91.802625 " stroke="#000000" stroke-width="8" stroke-opacity="1" stroke-miterlimit="4"/><path stroke-linecap="butt" transform="matrix(-0.723298, 0, 0, 0.724744, 1001.822407, 105.478343)" fill="none" stroke-linejoin="miter" d="M 41.39858 155.699134 C 125.999153 75.298946 234.000573 55.000823 484.000261 215.698791 " stroke="#000000" stroke-width="8" stroke-opacity="1" stroke-miterlimit="4"/></g><g clip-path="url(#22cc3e507f)"><path stroke-linecap="butt" transform="matrix(0.723298, 0, 0, 0.724744, -27.382191, 1572.299419)" fill="none" stroke-linejoin="miter" d="M 41.400226 151.801228 C 126.000798 232.201416 234.002219 252.499539 484.001906 91.801571 " stroke="#000000" stroke-width="8" stroke-opacity="1" stroke-miterlimit="4"/><path stroke-linecap="butt" transform="matrix(0.723298, 0, 0, 0.724744, -27.382191, 1572.299419)" fill="none" stroke-linejoin="miter" d="M 41.400226 155.69808 C 126.000798 75.297892 234.002219 54.999769 484.001906 215.697737 " stroke="#000000" stroke-width="8" stroke-opacity="1" stroke-miterlimit="4"/></g><g clip-path="url(#4994b78de8)"><path stroke-linecap="butt" transform="matrix(-0.723298, 0, 0, 0.724744, 352.190762, 1720.533533)" fill="none" stroke-linejoin="miter" d="M 41.400194 151.801589 C 126.000767 232.201776 234.002187 252.4999 484.001875 91.801931 " stroke="#000000" stroke-width="8" stroke-opacity="1" stroke-miterlimit="4"/><path stroke-linecap="butt" transform="matrix(-0.723298, 0, 0, 0.724744, 352.190762, 1720.533533)" fill="none" stroke-linejoin="miter" d="M 41.400194 155.69844 C 126.000767 75.298253 234.002187 55.000129 484.001875 215.698097 " stroke="#000000" stroke-width="8" stroke-opacity="1" stroke-miterlimit="4"/></g><g clip-path="url(#e42044b6f4)"><path stroke-linecap="butt" transform="matrix(0.723298, 0, 0, 0.724744, 297.433587, 1572.299419)" fill="none" stroke-linejoin="miter" d="M 41.401095 151.801228 C 126.001667 232.201416 233.997687 252.499539 483.997375 91.801571 " stroke="#000000" stroke-width="8" stroke-opacity="1" stroke-miterlimit="4"/><path stroke-linecap="butt" transform="matrix(0.723298, 0, 0, 0.724744, 297.433587, 1572.299419)" fill="none" stroke-linejoin="miter" d="M 41.401095 155.69808 C 126.001667 75.297892 233.997687 54.999769 483.997375 215.697737 " stroke="#000000" stroke-width="8" stroke-opacity="1" stroke-miterlimit="4"/></g><g clip-path="url(#b2cc79b153)"><path stroke-linecap="butt" transform="matrix(0.723298, 0, 0, 0.724744, 622.24936, 1572.299419)" fill="none" stroke-linejoin="miter" d="M 41.401969 151.801228 C 126.002542 232.201416 233.998562 252.499539 483.99825 91.801571 " stroke="#000000" stroke-width="8" stroke-opacity="1" stroke-miterlimit="4"/><path stroke-linecap="butt" transform="matrix(0.723298, 0, 0, 0.724744, 622.24936, 1572.299419)" fill="none" stroke-linejoin="miter" d="M 41.401969 155.69808 C 126.002542 75.297892 233.998562 54.999769 483.99825 215.697737 " stroke="#000000" stroke-width="8" stroke-opacity="1" stroke-miterlimit="4"/></g><g clip-path="url(#573076f2a0)"><path stroke-linecap="butt" transform="matrix(-0.723298, 0, 0, 0.724744, 677.006533, 1720.533533)" fill="none" stroke-linejoin="miter" d="M 41.399316 151.801589 C 125.999888 232.201776 234.001309 252.4999 484.000997 91.801931 " stroke="#000000" stroke-width="8" stroke-opacity="1" stroke-miterlimit="4"/><path stroke-linecap="butt" transform="matrix(-0.723298, 0, 0, 0.724744, 677.006533, 1720.533533)" fill="none" stroke-linejoin="miter" d="M 41.399316 155.69844 C 125.999888 75.298253 234.001309 55.000129 484.000997 215.698097 " stroke="#000000" stroke-width="8" stroke-opacity="1" stroke-miterlimit="4"/></g><g clip-path="url(#06b6f1bf45)"><path stroke-linecap="butt" transform="matrix(-0.723298, 0, 0, 0.724744, 1001.822407, 1720.533533)" fill="none" stroke-linejoin="miter" d="M 41.39858 151.801589 C 125.999153 232.201776 234.000573 252.4999 484.000261 91.801931 " stroke="#000000" stroke-width="8" stroke-opacity="1" stroke-miterlimit="4"/><path stroke-linecap="butt" transform="matrix(-0.723298, 0, 0, 0.724744, 1001.822407, 1720.533533)" fill="none" stroke-linejoin="miter" d="M 41.39858 155.69844 C 125.999153 75.298253 234.000573 55.000129 484.000261 215.698097 " stroke="#000000" stroke-width="8" stroke-opacity="1" stroke-miterlimit="4"/></g></svg>