<svg xmlns="http://www.w3.org/2000/svg" xmlns:xlink="http://www.w3.org/1999/xlink" width="1170" zoomAndPan="magnify" viewBox="0 0 877.5 1898.999944" height="2532" preserveAspectRatio="xMidYMid meet" version="1.0"><defs><g/><clipPath id="0334c491c0"><path d="M 0 0.539062 L 877 0.539062 L 877 1898.457031 L 0 1898.457031 Z M 0 0.539062 " clip-rule="nonzero"/></clipPath><clipPath id="c3894fa8c7"><path d="M 0 1061.632812 L 877 1061.632812 L 877 1896 L 0 1896 Z M 0 1061.632812 " clip-rule="nonzero"/></clipPath></defs><g clip-path="url(#0334c491c0)"><path fill="#ffffff" d="M 0 0.539062 L 877.5 0.539062 L 877.5 1899.539062 L 0 1899.539062 Z M 0 0.539062 " fill-opacity="1" fill-rule="nonzero"/><path fill="#fffefb" d="M 0 0.539062 L 877.5 0.539062 L 877.5 1899.539062 L 0 1899.539062 Z M 0 0.539062 " fill-opacity="1" fill-rule="nonzero"/></g><path fill="#ad6993" d="M 777.300781 242.101562 C 777.597656 232.542969 785.957031 231.046875 785.75 220.980469 L 796.304688 220.980469 C 793.289062 231.335938 787.960938 239.382812 777.300781 242.101562 Z M 777.300781 242.101562 " fill-opacity="1" fill-rule="evenodd"/><path fill="#ad6993" d="M 196.511719 267.449219 C 203.605469 265.277344 199.796875 274.015625 200.730469 278.007812 C 196.941406 277.738281 196.277344 280.59375 192.285156 280.117188 C 190.609375 272.816406 194.632812 271.203125 196.511719 267.449219 Z M 196.511719 267.449219 " fill-opacity="1" fill-rule="evenodd"/><path fill="#ad6993" d="M 272.542969 299.132812 L 278.878906 299.132812 C 279.761719 306.351562 278.238281 311.167969 270.429688 309.695312 C 269.757812 304.796875 270.765625 301.582031 272.542969 299.132812 Z M 272.542969 299.132812 " fill-opacity="1" fill-rule="evenodd"/><path fill="#ad6993" d="M 217.628906 347.714844 L 217.628906 337.152344 C 226.164062 335.65625 229.683594 339.175781 228.1875 347.714844 Z M 217.628906 347.714844 " fill-opacity="1" fill-rule="evenodd"/><path fill="#ad6993" d="M 217.628906 358.273438 C 208.652344 360.210938 208.609375 353.210938 209.179688 345.601562 L 215.515625 345.601562 C 217.949219 348.097656 217.90625 353.066406 217.628906 358.273438 Z M 217.628906 358.273438 " fill-opacity="1" fill-rule="evenodd"/><path fill="#ad6993" d="M 202.84375 360.386719 C 207.261719 359.488281 208.4375 361.832031 211.292969 362.5 C 210.175781 364.195312 209.089844 365.925781 209.179688 368.835938 C 203.617188 369.472656 202.25 365.910156 202.84375 360.386719 Z M 202.84375 360.386719 " fill-opacity="1" fill-rule="evenodd"/><path fill="#ad6993" d="M 234.527344 303.359375 C 269.457031 281.960938 309.15625 247.035156 333.792969 208.308594 C 357.898438 194.398438 370.230469 168.707031 403.488281 163.949219 C 400.167969 181.382812 381.332031 186.273438 369.699219 195.632812 C 352.515625 209.457031 340.648438 228.40625 323.234375 242.101562 C 322.769531 250.085938 316.59375 252.359375 314.785156 259 C 278.382812 283.140625 250.261719 315.566406 211.300781 337.152344 C 202.628906 343.265625 198.972656 354.398438 192.289062 362.5 C 190.78125 368.234375 202.253906 360.988281 200.738281 366.722656 C 201.410156 371.621094 200.398438 374.832031 198.625 377.28125 C 193.722656 376.554688 188.730469 375.917969 190.179688 368.835938 C 176.871094 387.671875 154.359375 399.277344 135.265625 415.304688 C 104.507812 441.125 80.878906 476.210938 52.898438 510.355469 C 79.847656 523.886719 59.550781 553.160156 46.5625 567.382812 C 63.140625 576.933594 84.253906 556.300781 101.472656 552.601562 C 109.09375 542.617188 123.15625 539.082031 131.042969 529.367188 C 120.425781 522.347656 114.765625 538.378906 107.808594 542.039062 C 96.824219 540.351562 85.511719 538.992188 84.578125 527.253906 C 91.878906 525.582031 93.492188 529.605469 97.246094 531.480469 C 99.140625 523.128906 105.429688 527.207031 109.921875 525.144531 C 113.746094 517.539062 109.546875 518.917969 107.808594 512.46875 C 122.609375 509.6875 133.082031 503.402344 131.042969 487.125 C 141.363281 487.585938 143.054688 479.425781 145.824219 472.339844 C 151.402344 472.285156 159.058594 474.3125 156.382812 466.003906 C 163.238281 464.78125 166.210938 467.445312 171.167969 468.117188 C 176.390625 466.300781 170.546875 453.414062 175.390625 451.21875 C 189.828125 460.554688 191.140625 437.167969 202.84375 444.882812 C 200.117188 438.625 210.828125 438.855469 211.292969 430.101562 C 214.359375 431.253906 222.210938 427.628906 221.851562 432.210938 C 224.71875 431.558594 223.601562 426.925781 223.964844 423.765625 C 228.863281 423.089844 232.074219 424.101562 234.527344 425.878906 C 242.402344 416.582031 243.410156 411.980469 242.972656 402.644531 C 249.640625 401.613281 250.433594 406.449219 257.757812 404.757812 C 257.664062 401.140625 259.324219 399.285156 261.980469 398.421875 C 258.933594 395.132812 253.472656 394.253906 255.644531 385.746094 C 260.886719 385.429688 264.40625 386.835938 266.203125 389.96875 C 270.589844 389.429688 266.78125 380.691406 270.425781 379.40625 C 273.234375 381.53125 278.285156 381.402344 278.875 385.742188 C 282.65625 382.484375 289.457031 382.242188 287.320312 373.070312 C 296.527344 375.9375 294.960938 368.039062 299.996094 366.734375 C 308.164062 364.898438 307.507812 371.894531 312.664062 373.070312 C 313.921875 364.082031 321.03125 368.984375 316.890625 358.285156 C 325.457031 356.933594 333.351562 343.855469 342.234375 349.835938 C 341.222656 342.285156 341.003906 335.925781 342.234375 326.601562 C 350.207031 325.667969 352.148438 330.769531 357.015625 332.9375 C 355.242188 330.488281 354.230469 327.277344 354.902344 322.378906 C 360.421875 322.96875 365.472656 323.089844 363.351562 316.042969 C 368.558594 315.761719 373.527344 315.722656 376.023438 318.15625 C 380.566406 316.363281 383.496094 312.953125 382.359375 305.480469 C 389.214844 304.253906 392.183594 306.921875 397.144531 307.59375 C 406.957031 305.441406 410.324219 296.835938 418.265625 292.808594 C 420.164062 293.371094 422.753906 292.105469 424.601562 292.808594 C 435.390625 296.914062 443.136719 302.527344 452.050781 307.59375 C 452.625 296.167969 453.867188 295.015625 452.050781 284.355469 C 461.082031 278.308594 471.390625 290.492188 475.28125 290.691406 C 480.929688 290.984375 482.71875 285.324219 487.957031 286.46875 C 495.496094 288.117188 503.390625 291 509.078125 299.140625 C 510.070312 309.996094 505.144531 314.925781 494.292969 313.925781 L 494.292969 330.824219 C 489.0625 335.894531 471.621094 337.550781 466.839844 330.824219 C 482.789062 359.933594 491.558594 396.222656 519.636719 413.203125 C 517.703125 429.921875 530.347656 432.066406 534.421875 442.773438 C 542.867188 439.253906 536.816406 421.230469 538.644531 411.089844 C 548.488281 408.285156 548.023438 415.792969 551.316406 419.542969 C 549.59375 453.5 542.554688 473.308594 525.972656 495.582031 C 519.574219 504.179688 507.933594 509.652344 502.742188 516.703125 C 499.15625 521.570312 489.265625 540.433594 490.070312 546.277344 C 491.976562 560.15625 518.035156 570.636719 528.085938 584.296875 C 538.386719 598.300781 538.867188 609.027344 544.984375 626.542969 C 551.289062 606.796875 568.429688 597.890625 576.660156 580.074219 C 574.425781 574.566406 565.589844 575.65625 563.992188 569.511719 C 558.757812 574.710938 569.980469 574.242188 568.214844 582.1875 C 560.132812 581.144531 561.46875 589.523438 551.316406 586.410156 C 552.003906 591.359375 560.53125 588.460938 561.875 592.746094 C 558.445312 597.058594 558.808594 605.167969 551.316406 605.421875 C 545.554688 606.957031 547.066406 601.226562 542.871094 601.195312 C 547.40625 590.109375 542.277344 590.640625 542.871094 575.847656 C 552.808594 582.417969 547.90625 570.449219 557.652344 571.621094 C 554.96875 566.5625 541.425781 572.363281 542.871094 563.175781 C 543.8125 551.796875 553.753906 561.792969 561.875 556.839844 C 561.160156 552.601562 562.308594 550.230469 566.101562 550.503906 C 564.308594 547.367188 559.296875 547.445312 555.539062 546.28125 C 558.171875 537.347656 562.902344 541.496094 559.765625 529.382812 C 570.855469 528.152344 575.753906 533.105469 587.222656 531.496094 C 577.351562 529.375 579.21875 525.105469 580.886719 514.597656 L 591.445312 514.597656 C 592.191406 511.949219 592.273438 503.171875 593.554688 495.589844 C 596.277344 492.679688 602.730469 493.496094 608.339844 493.476562 C 606.964844 491.328125 603.480469 491.289062 604.113281 487.140625 C 606.605469 484.707031 611.582031 484.75 616.785156 485.027344 C 614.328125 480.3125 617.773438 475.050781 618.898438 463.902344 C 623.796875 463.226562 627.007812 464.242188 629.460938 466.015625 C 629.042969 455.976562 641.320312 456.296875 635.792969 447.007812 C 647.277344 447.933594 644.101562 434.195312 656.910156 436.449219 L 656.910156 428 C 664.460938 427.800781 668.324219 423.917969 669.585938 417.4375 C 679.953125 416.539062 685.582031 410.910156 686.480469 400.539062 C 697.695312 404.011719 696.824219 395.394531 699.152344 389.980469 C 702.941406 389.710938 703.609375 392.566406 707.601562 392.089844 C 724.230469 378.445312 735.589844 359.53125 756.175781 349.84375 C 757.234375 339.332031 755.742188 337.261719 758.289062 330.835938 L 777.296875 330.835938 C 781.339844 320.453125 770.277344 325.179688 770.964844 318.164062 C 769.492188 308.855469 779.75 314.679688 781.519531 313.9375 C 785.027344 312.476562 786.050781 302.6875 794.195312 307.601562 C 795.003906 290.992188 796.449219 284.699219 792.082031 271.695312 C 781.675781 272.242188 771.550781 272.511719 773.074219 261.132812 C 775.128906 261.074219 774.710938 258.546875 775.183594 256.910156 C 787.191406 256.164062 793.308594 261.3125 804.753906 261.132812 C 805.792969 246.015625 787.339844 250.382812 787.855469 235.789062 C 796.496094 229.308594 804.84375 233.769531 817.425781 233.675781 C 824.042969 225.511719 837.140625 223.824219 853.328125 225.226562 C 854.019531 238.308594 851.519531 246.59375 846.992188 261.132812 C 859.253906 249.199219 863.941406 267.273438 876.558594 267.46875 C 877.550781 279.726562 870.09375 283.527344 857.554688 282.253906 C 857.230469 277 860.871094 275.714844 861.777344 271.691406 C 843.585938 285.179688 836.554688 309.832031 827.988281 332.949219 C 813.476562 341.972656 813.441406 358.691406 804.757812 370.96875 C 787.355469 395.554688 757.15625 406.636719 739.285156 430.113281 C 734.871094 429.21875 733.695312 431.5625 730.835938 432.226562 C 694.226562 461.828125 665.8125 500.382812 627.347656 531.5 C 618.9375 538.308594 611.988281 546.835938 604.117188 554.734375 C 605.8125 562.0625 600.972656 562.855469 602.003906 569.519531 C 587.4375 584.523438 581.09375 607.75 561.875 618.101562 C 552.835938 651.300781 547.347656 688.058594 530.199219 713.152344 C 510.289062 717.175781 502.15625 732.984375 492.179688 746.945312 C 505.855469 746.035156 510.769531 744.6875 528.085938 744.832031 C 527.472656 754.597656 543.941406 747.277344 540.753906 759.617188 C 566.445312 758.566406 587.804688 761.851562 589.332031 784.964844 C 569.164062 791.648438 542.59375 791.40625 511.1875 791.296875 C 506.847656 791.886719 506.972656 796.945312 504.851562 799.75 C 483.835938 799.851562 469.023438 806.160156 447.832031 806.085938 C 429.953125 816.914062 380.96875 814.699219 350.679688 818.757812 C 317.785156 823.171875 285.496094 814.1875 261.972656 822.984375 C 229.421875 810.570312 195.679688 819.238281 166.933594 816.648438 C 157.804688 815.820312 137.261719 811.628906 126.808594 806.089844 C 121.601562 803.332031 110.160156 798.195312 97.238281 799.753906 L 97.238281 793.417969 C 88.289062 791.8125 72.226562 797.3125 69.785156 789.191406 C 74.808594 776.195312 94.484375 786.148438 107.800781 787.078125 C 119.347656 787.890625 129.09375 785.273438 137.367188 787.078125 C 121.945312 773.9375 102.429688 772.269531 86.679688 759.621094 C 83.214844 756.839844 81.578125 751.722656 78.230469 749.0625 C 69.683594 742.257812 59.574219 738.796875 52.886719 730.050781 C 51.375 728.070312 51.296875 723.34375 48.664062 719.492188 C 37.917969 703.746094 33.9375 676.125 40.21875 649.789062 C 48.492188 615.066406 82.914062 594.664062 97.242188 565.300781 C 76.574219 574.90625 56.496094 585.097656 23.324219 582.195312 C 17.109375 575.734375 8.785156 571.390625 0.09375 567.410156 C 6.625 548.832031 21.03125 523.519531 35.996094 508.269531 C 39.488281 504.710938 45.398438 503.636719 48.664062 499.820312 C 67.921875 477.324219 79.777344 446.675781 105.691406 430.113281 C 101 352.199219 152.265625 330.25 164.828125 269.585938 C 178.480469 262.824219 186.621094 250.542969 196.507812 240.011719 C 208.296875 238.429688 215.875 232.628906 221.851562 225.230469 C 260.089844 214.039062 286.601562 187.914062 316.890625 163.972656 C 335.167969 149.523438 346.179688 131.46875 371.800781 119.617188 C 377.15625 117.140625 382.449219 112.273438 386.585938 111.167969 C 406.3125 105.894531 428.773438 107.824219 447.832031 102.71875 C 502.425781 88.097656 559.535156 65.75 616.792969 47.800781 C 620.421875 46.664062 623.394531 42.824219 627.351562 41.464844 C 681.996094 22.707031 754.09375 34.746094 815.320312 14.007812 C 825.5625 10.539062 834.796875 0.570312 847 7.671875 C 848.523438 14.128906 844.839844 15.371094 844.886719 20.347656 C 779.902344 43.230469 704.804688 39.738281 637.910156 54.140625 C 625.957031 56.714844 611.835938 62.449219 599.894531 66.816406 C 556.742188 82.589844 511.71875 97.683594 464.722656 111.171875 C 436.429688 119.292969 401.640625 112.738281 371.796875 130.179688 C 313.625 165.644531 302.253906 247.917969 247.183594 286.488281 C 243.867188 292.984375 239.917969 298.894531 234.527344 303.359375 Z M 190.171875 269.5625 C 174.183594 285.875 169.160156 304.054688 154.269531 328.703125 C 136.4375 358.21875 117.945312 378.101562 116.253906 417.417969 C 137.3125 403.28125 154.480469 385.242188 173.277344 368.835938 C 168.996094 364.667969 155.242188 369.976562 158.492188 358.277344 C 166.1875 357.625 172.238281 358.609375 177.503906 360.386719 C 177.976562 356.394531 175.121094 355.726562 175.390625 351.941406 C 186.445312 350.671875 180.074219 344.355469 185.949219 337.15625 C 183.460938 336.824219 179.953125 337.519531 179.613281 335.042969 C 181.234375 327.507812 194.15625 331.28125 198.621094 326.59375 C 191.351562 328.234375 188.535156 325.417969 190.175781 318.144531 L 204.957031 318.144531 C 198.671875 305.109375 202.890625 295.171875 215.519531 290.6875 C 210.433594 284.472656 223.753906 283.503906 217.628906 273.789062 L 226.078125 273.789062 C 226.550781 269.796875 223.699219 269.128906 223.964844 265.339844 C 233.8125 268.148438 233.339844 260.636719 236.640625 256.890625 C 244.785156 256.589844 255.1875 258.542969 257.757812 252.667969 C 254.042969 251.453125 245.347656 255.222656 245.085938 250.554688 L 245.085938 244.222656 C 252.449219 246.304688 258.464844 235.402344 270.429688 235.773438 C 265.660156 230.863281 275.675781 222.816406 285.210938 225.210938 C 289.046875 214.4375 308.371094 193.675781 304.21875 189.304688 C 273.492188 223.328125 223.074219 235.988281 190.171875 269.558594 Z M 842.785156 269.5625 C 843.289062 266.546875 846.261719 266 847.007812 263.226562 C 842.660156 261.371094 837.523438 268.699219 842.785156 269.5625 Z M 825.886719 297.019531 C 827.640625 291.730469 831.675781 288.722656 832.222656 282.234375 C 824.964844 280.746094 820.410156 292.757812 825.886719 297.019531 Z M 422.492188 311.808594 C 422.015625 308.0625 424.621094 301.230469 418.269531 303.359375 C 417.679688 308.171875 418.777344 311.296875 422.492188 311.808594 Z M 813.214844 322.367188 C 814.292969 316.402344 818.328125 313.398438 819.550781 307.582031 L 813.214844 307.582031 C 816 314.125 806.957031 319.296875 813.214844 322.367188 Z M 447.839844 322.367188 C 446.855469 318.328125 454.347656 313.277344 445.726562 313.917969 C 446.085938 317.078125 444.972656 321.714844 447.839844 322.367188 Z M 792.097656 349.824219 C 799.5 344.515625 809.753906 330.925781 808.992188 324.476562 C 803.625 333.191406 796.332031 339.976562 792.097656 349.824219 Z M 424.609375 347.714844 C 421.183594 349.226562 421.183594 337.753906 424.609375 339.265625 C 443.34375 345.171875 448.710938 364.445312 468.960938 368.835938 C 471.160156 358.1875 457.945312 362.953125 456.285156 356.164062 C 462.71875 347.992188 458.699219 335.238281 447.839844 332.933594 C 447.480469 336.09375 448.589844 340.726562 445.726562 341.382812 C 430.015625 338.789062 418.066406 332.433594 405.601562 326.597656 C 400.78125 336.570312 419.222656 348.378906 424.609375 347.714844 Z M 411.9375 354.050781 C 401.414062 350.492188 398.539062 339.285156 388.703125 335.039062 C 378.957031 338.019531 374.796875 352.867188 365.472656 349.824219 C 376.609375 353.605469 400.816406 364.007812 411.9375 354.050781 Z M 766.753906 368.835938 L 766.753906 377.28125 C 751.171875 384.933594 743.019531 400.015625 722.402344 402.628906 C 726.246094 414.21875 713.601562 409.316406 713.953125 417.414062 C 741.554688 405.582031 773.757812 380.0625 792.097656 351.933594 C 782.355469 356.277344 779.679688 367.6875 766.753906 368.835938 Z M 350.6875 373.058594 C 345.550781 367.957031 331.816406 390.753906 333.792969 385.734375 C 345.5 378.4375 362.191406 376.117188 369.695312 364.613281 C 364.734375 363.9375 361.765625 361.277344 354.910156 362.5 C 355.21875 367.738281 355.300781 372.75 350.6875 373.058594 Z M 487.964844 402.632812 C 472.671875 397.605469 458.785156 389.789062 445.722656 383.625 C 429.15625 375.800781 412.800781 378.023438 388.699219 375.175781 C 364.929688 399.277344 330.203125 412.425781 293.660156 423.757812 C 279.179688 455.046875 256.976562 478.597656 236.636719 504.023438 C 319.902344 485.335938 420.746094 499.945312 479.515625 539.933594 C 485.105469 517.984375 492.667969 510.445312 504.859375 495.574219 C 512.484375 486.277344 524.355469 475.191406 528.09375 468.117188 C 530.425781 463.710938 529.757812 457.792969 532.316406 453.332031 C 512.5625 441.402344 499.945312 422.335938 487.964844 402.632812 Z M 293.664062 396.292969 C 301.339844 407.46875 316.792969 391.796875 325.34375 389.957031 C 310.550781 387.886719 305.363281 401.714844 293.664062 396.292969 Z M 264.09375 432.203125 C 268.683594 424.121094 277.90625 420.671875 280.988281 411.082031 C 276.777344 408.960938 277.65625 401.742188 270.429688 402.632812 C 268.914062 411.734375 263.097656 427.613281 264.09375 432.203125 Z M 705.503906 425.863281 C 709.140625 425.976562 710.917969 424.238281 711.839844 421.640625 C 708.207031 421.527344 706.425781 423.265625 705.503906 425.863281 Z M 699.167969 434.316406 C 710.03125 429.210938 691.898438 428.859375 699.167969 434.316406 Z M 194.398438 472.335938 C 217.574219 463.382812 244.152344 450.359375 259.867188 434.316406 C 239.660156 441.5625 229.230469 458.59375 202.84375 459.664062 C 202.320312 467.585938 190.675781 464.390625 190.175781 472.335938 C 182.3125 469.542969 175.976562 477.613281 169.054688 476.558594 C 176.871094 484.664062 187.320312 475.074219 194.398438 472.335938 Z M 659.039062 468.109375 C 660.488281 475.195312 655.496094 475.835938 650.589844 476.558594 C 650.976562 490.257812 632.308594 491.59375 635.804688 501.910156 C 630.179688 503.316406 622.746094 502.925781 625.25 512.46875 C 621.570312 514.421875 613.914062 512.394531 614.691406 518.800781 C 651.398438 501.300781 670.175781 465.867188 694.945312 436.425781 C 675.574219 439.585938 677.707031 464.253906 659.039062 468.109375 Z M 124.699219 620.195312 C 124.816406 617.496094 127.40625 617.273438 126.8125 613.859375 C 139.449219 621.898438 140.992188 594.132812 152.15625 601.183594 C 149.59375 609.886719 142.105469 613.664062 137.375 620.195312 C 143.996094 618.328125 158.390625 606.039062 164.828125 596.960938 C 160.375 593.671875 153.121094 593.183594 152.15625 586.402344 C 154.847656 580.644531 160.4375 577.78125 166.9375 575.84375 C 167.277344 562.652344 188.550781 546.132812 185.945312 529.375 L 194.394531 529.375 C 192.921875 517.335938 197.367188 511.222656 204.953125 508.25 C 199.3125 496.300781 208.480469 497.578125 209.175781 487.128906 C 205.023438 487.757812 204.988281 484.273438 202.84375 482.902344 C 186.707031 486.816406 184.808594 495.460938 175.386719 506.136719 C 172.550781 509.347656 166.429688 510.871094 162.714844 514.585938 C 159.285156 518.011719 157.730469 524.070312 154.265625 527.257812 C 138.761719 541.527344 120.703125 546.378906 116.25 567.390625 C 151.023438 574.710938 123.390625 622.671875 105.6875 628.644531 C 97.722656 626.046875 88.828125 624.382812 78.234375 624.421875 C 83.375 646.890625 134.15625 635.894531 133.144531 622.308594 C 132.566406 627.285156 125.28125 622.113281 124.699219 620.195312 Z M 135.261719 527.253906 C 146.9375 514.996094 160.773438 504.894531 171.164062 491.351562 C 168.007812 490.917969 155.082031 489.550781 152.15625 491.351562 C 159.894531 506.890625 130 514.191406 135.261719 527.253906 Z M 274.65625 508.242188 C 279.261719 507.859375 281.375 509.96875 280.988281 514.578125 C 254.988281 522.167969 219.125 511.289062 215.519531 537.8125 C 238.589844 528.5 266.316406 523.84375 295.777344 520.914062 C 305.464844 527.519531 328.242188 528.210938 338.011719 523.027344 C 321.675781 527.441406 299.3125 517.777344 319.003906 516.691406 C 352.054688 514.871094 304.617188 513.207031 310.558594 512.46875 C 309.378906 512.613281 308.070312 518.683594 304.222656 516.691406 C 304.1875 513.203125 298.363281 515.511719 297.886719 512.46875 C 302.59375 507.316406 313.609375 508.472656 319.007812 504.019531 C 299.714844 505.453125 286.960938 502.3125 274.65625 508.242188 Z M 441.503906 537.816406 C 431.960938 535.394531 421.96875 533.414062 420.382812 523.03125 C 409.492188 521.207031 393.730469 513.132812 386.59375 514.582031 C 397.464844 528.359375 424.863281 536.839844 441.503906 537.816406 Z M 249.308594 761.714844 C 226.589844 765.011719 195.953125 784.328125 166.9375 780.726562 C 166.304688 776.574219 169.792969 776.535156 171.164062 774.390625 L 158.492188 774.390625 C 151.238281 758.410156 131.230469 755.1875 126.8125 736.367188 C 129.257812 728.253906 145.3125 733.75 154.269531 732.144531 L 154.269531 738.480469 C 177.667969 744.070312 195.363281 751.566406 213.40625 734.257812 C 217.351562 743.511719 216.355469 736.570312 226.078125 736.367188 C 233.050781 740.574219 220.84375 745.390625 226.078125 746.925781 C 237.238281 743.304688 241.992188 733.269531 253.535156 730.03125 C 255.992188 730.386719 255.828125 733.367188 255.648438 736.367188 C 262.875 737.257812 261.992188 730.039062 266.207031 727.917969 C 270.402344 739.226562 278.203125 725 283.101562 734.253906 C 282.476562 738.550781 278.875 739.878906 276.765625 742.703125 C 285.816406 743.222656 289.28125 727.160156 297.886719 734.253906 C 296.417969 747.605469 273.800781 750.957031 274.65625 759.597656 C 293.765625 748.433594 307.664062 732.058594 327.453125 721.578125 C 332.171875 734.132812 316.339844 737.097656 319.003906 740.589844 C 330.367188 735.757812 333.011719 722.207031 346.460938 719.464844 C 350.757812 729.535156 338.035156 733.382812 342.234375 736.363281 C 356.820312 727.71875 360.179688 707.839844 378.140625 702.566406 C 382.03125 712.914062 369.371094 717.574219 373.917969 721.574219 C 381.699219 715.277344 382.304688 701.804688 395.039062 700.453125 C 395.03125 702.570312 396.75 702.964844 397.148438 704.679688 C 396.199219 709.5 385.480469 715.351562 390.816406 719.460938 C 400.464844 710.8125 405.894531 697.929688 418.269531 692.003906 C 425.425781 696.511719 413.691406 703.507812 418.269531 704.679688 C 424.601562 700.453125 423.890625 689.175781 433.054688 687.777344 C 439.386719 705.695312 410.792969 717.378906 411.933594 730.023438 C 421.125 717.535156 430.351562 706.921875 439.386719 694.117188 C 441.9375 690.503906 440.003906 678.726562 449.945312 683.558594 C 451.742188 688.914062 442.933594 698.835938 447.832031 694.117188 C 452.847656 687.164062 459.125 681.46875 468.953125 679.332031 C 471.496094 695.996094 454.0625 703.820312 458.394531 715.238281 C 457.425781 708.441406 463.90625 709.164062 466.839844 704.679688 C 473.898438 693.898438 472.335938 675.601562 483.738281 668.773438 C 489.617188 667.820312 482.085938 680.289062 487.960938 679.332031 C 491.859375 665.625 495.109375 651.277344 496.410156 634.976562 C 478.753906 636.445312 492.699219 606.296875 479.515625 603.292969 C 479.1875 605.78125 479.875 609.289062 477.402344 609.628906 C 468.699219 604.449219 470.359375 594.394531 464.726562 586.394531 C 458.671875 577.792969 440.273438 572.734375 447.832031 558.9375 C 463.425781 563.058594 466.296875 579.898438 477.402344 588.511719 C 472.984375 571.695312 455.675781 548.34375 433.050781 548.378906 C 433.644531 553.902344 432.277344 557.464844 426.714844 556.824219 C 414.839844 553.476562 401.558594 546.308594 388.699219 542.042969 C 383.078125 540.179688 370.539062 543.648438 369.691406 533.59375 C 367.117188 526.59375 386.988281 531.449219 380.253906 527.257812 C 367.4375 529.152344 362.4375 524.15625 369.691406 516.699219 C 359.925781 519.320312 348.800781 512.386719 344.347656 516.699219 C 353.570312 518.089844 354.109375 523.519531 346.460938 527.257812 C 350.835938 528.511719 360.335938 524.648438 361.242188 529.371094 C 361.359375 532.070312 363.949219 532.292969 363.355469 535.707031 C 344.835938 544.609375 327.394531 528.605469 299.996094 535.707031 C 295.660156 535.117188 295.78125 530.0625 293.664062 527.253906 C 243.1875 540.140625 214.027344 574.347656 185.949219 609.632812 C 157.449219 626.894531 135.003906 650.210938 90.910156 651.875 C 75.117188 673.269531 75.230469 631.582031 67.675781 624.421875 C 58.3125 628.761719 53.328125 643.984375 50.78125 656.101562 C 43.433594 691.03125 52.464844 712.15625 69.789062 730.03125 C 85.035156 745.761719 99.800781 754.617188 118.367188 763.828125 C 139.644531 774.382812 168.046875 789.890625 192.285156 795.507812 C 194.15625 790.339844 202.578125 791.722656 204.957031 787.0625 C 195.617188 785.558594 184.710938 793.445312 177.503906 787.0625 C 194.734375 779.121094 229.4375 773.710938 249.308594 761.714844 Z M 14.875 558.9375 C 29.746094 586.023438 51.402344 545.203125 59.226562 527.253906 C 38.941406 505.960938 26.121094 545.304688 14.875 558.9375 Z M 591.457031 531.480469 C 597.957031 541.511719 582.46875 540.085938 589.34375 550.488281 C 580.851562 550.183594 583.757812 555.90625 585.117188 561.046875 C 579.519531 561.082031 572.679688 559.875 572.449219 565.273438 C 574.941406 567.703125 579.914062 567.664062 585.117188 567.386719 C 590.257812 549.289062 599.445312 535.246094 610.464844 523.03125 C 600.386719 522.105469 601.761719 532.636719 591.457031 531.480469 Z M 395.039062 533.589844 C 412.066406 541.742188 405.0625 530.484375 395.039062 533.589844 Z M 504.859375 698.347656 C 497.28125 699.535156 493.023438 699.46875 494.304688 713.132812 C 502.703125 718.339844 502.195312 699.277344 511.199219 698.347656 C 532.96875 654.035156 518.839844 582.5625 485.855469 561.050781 C 514.191406 585.761719 526.441406 655.132812 504.859375 698.347656 Z M 494.304688 588.511719 C 492.179688 582.796875 485.304688 570.875 481.628906 573.726562 C 486.714844 577.792969 488.640625 585.019531 494.304688 588.511719 Z M 82.457031 613.855469 C 90.484375 614.28125 97.488281 615.726562 103.578125 618.082031 C 113.023438 608.515625 122.945312 599.429688 124.699219 582.175781 C 103 559.699219 88.546875 595.207031 82.457031 613.855469 Z M 506.976562 634.980469 C 512.019531 623.542969 503.980469 607.03125 498.527344 599.070312 C 502.382812 609.542969 499.386719 628.992188 506.976562 634.980469 Z M 494.304688 613.855469 C 497.089844 608.015625 485.953125 606.605469 492.191406 609.632812 C 492.035156 612.589844 492.664062 617.710938 494.304688 613.855469 Z M 475.292969 704.683594 C 477.101562 709.609375 467.910156 713.785156 473.179688 715.242188 C 485.988281 714.308594 495.292969 688.570312 492.1875 685.671875 C 486.84375 691.527344 487.378906 712.367188 475.292969 704.683594 Z M 437.277344 768.050781 C 424.464844 784.105469 402.359375 790.863281 382.367188 799.734375 C 405.378906 799.636719 420.050781 787.789062 435.167969 778.613281 C 440.28125 775.507812 458.007812 769.621094 449.953125 765.9375 C 447.457031 768.371094 442.488281 768.328125 437.277344 768.050781 Z M 202.84375 799.734375 C 220.59375 799.164062 244.550781 815.535156 255.648438 801.847656 C 250.234375 799.558594 245.578125 808.265625 242.972656 801.847656 C 242.726562 799.6875 252.085938 797.574219 245.085938 795.511719 C 239.023438 797.261719 226.121094 807.21875 221.855469 797.625 C 221.285156 787.832031 248.277344 794.574219 242.972656 787.066406 C 234.269531 789.714844 211.273438 790.417969 202.84375 799.734375 Z M 357.023438 806.074219 C 361.011719 805.132812 369.753906 808.945312 367.582031 801.847656 C 362.34375 801.535156 357.332031 801.453125 357.023438 806.074219 Z M 357.023438 806.074219 " fill-opacity="1" fill-rule="evenodd"/><g fill="#000000" fill-opacity="1"><g transform="translate(244.602857, 995.040499)"><g><path d="M 58.953125 -87.71875 L 58.953125 -37.023438 C 58.953125 -24.898438 55.339844 -18.058594 42.054688 -18.058594 C 28.894531 -18.058594 25.15625 -24.898438 25.15625 -37.023438 L 25.15625 -87.71875 L 5.804688 -87.71875 L 5.804688 -34.183594 C 5.804688 -10.835938 19.222656 1.289062 42.054688 1.289062 C 64.886719 1.289062 78.304688 -10.835938 78.304688 -34.183594 L 78.304688 -87.71875 Z M 58.953125 -87.71875 "/></g></g></g><g fill="#000000" fill-opacity="1"><g transform="translate(337.740813, 995.040499)"><g><path d="M 75.464844 -43.988281 C 75.464844 -30.445312 63.210938 -18.058594 49.664062 -18.058594 C 36.121094 -18.058594 23.863281 -30.445312 23.863281 -43.988281 C 23.863281 -57.535156 36.121094 -69.789062 49.664062 -69.789062 C 63.210938 -69.789062 75.464844 -57.535156 75.464844 -43.988281 Z M 94.816406 -43.859375 C 94.816406 -68.113281 73.917969 -89.011719 49.664062 -89.011719 C 25.414062 -89.011719 4.515625 -68.113281 4.515625 -43.859375 C 4.515625 -19.609375 25.414062 1.289062 49.664062 1.289062 C 73.917969 1.289062 94.816406 -19.609375 94.816406 -43.859375 Z M 94.816406 -43.859375 "/></g></g></g><g fill="#000000" fill-opacity="1"><g transform="translate(446.100743, 995.040499)"><g><path d="M 88.234375 -87.71875 L 67.339844 -87.71875 L 49.148438 -38.441406 L 44.375 -24.640625 L 39.601562 -38.441406 L 21.542969 -87.71875 L 0.644531 -87.71875 L 36.121094 0 L 52.761719 0 Z M 88.234375 -87.71875 "/></g></g></g><g fill="#000000" fill-opacity="1"><g transform="translate(544.011692, 995.040499)"><g><path d="M 55.46875 -33.539062 L 33.28125 -33.539062 L 44.375 -64.757812 Z M 88.234375 0 L 52.632812 -87.71875 L 36.25 -87.71875 L 0.644531 0 L 21.414062 0 L 27.734375 -17.671875 L 61.144531 -17.671875 L 67.46875 0 Z M 88.234375 0 "/></g></g></g><path fill="#ad6993" d="M 84.910156 1653.949219 C 84.605469 1663.691406 76.082031 1665.214844 76.296875 1675.476562 L 65.53125 1675.476562 C 68.609375 1664.921875 74.039062 1656.71875 84.910156 1653.949219 Z M 84.910156 1653.949219 " fill-opacity="1" fill-rule="evenodd"/><path fill="#ad6993" d="M 677.121094 1628.117188 C 669.882812 1630.332031 673.769531 1621.421875 672.816406 1617.355469 C 676.679688 1617.628906 677.359375 1614.722656 681.429688 1615.203125 C 683.136719 1622.648438 679.035156 1624.289062 677.121094 1628.117188 Z M 677.121094 1628.117188 " fill-opacity="1" fill-rule="evenodd"/><path fill="#ad6993" d="M 599.59375 1595.828125 L 593.132812 1595.828125 C 592.230469 1588.46875 593.785156 1583.5625 601.746094 1585.0625 C 602.433594 1590.054688 601.402344 1593.328125 599.59375 1595.828125 Z M 599.59375 1595.828125 " fill-opacity="1" fill-rule="evenodd"/><path fill="#ad6993" d="M 655.585938 1546.316406 L 655.585938 1557.078125 C 646.882812 1558.601562 643.296875 1555.015625 644.820312 1546.316406 Z M 655.585938 1546.316406 " fill-opacity="1" fill-rule="evenodd"/><path fill="#ad6993" d="M 655.585938 1535.554688 C 664.738281 1533.578125 664.785156 1540.710938 664.203125 1548.46875 L 657.742188 1548.46875 C 655.257812 1545.921875 655.304688 1540.859375 655.585938 1535.554688 Z M 655.585938 1535.554688 " fill-opacity="1" fill-rule="evenodd"/><path fill="#ad6993" d="M 670.660156 1533.402344 C 666.160156 1534.316406 664.960938 1531.925781 662.046875 1531.246094 C 663.1875 1529.515625 664.296875 1527.753906 664.203125 1524.789062 C 669.875 1524.140625 671.269531 1527.769531 670.660156 1533.402344 Z M 670.660156 1533.402344 " fill-opacity="1" fill-rule="evenodd"/><g clip-path="url(#c3894fa8c7)"><path fill="#ad6993" d="M 638.355469 1591.519531 C 602.742188 1613.324219 562.261719 1648.917969 537.140625 1688.390625 C 512.558594 1702.566406 499.984375 1728.746094 466.074219 1733.597656 C 469.457031 1715.832031 488.664062 1710.847656 500.527344 1701.308594 C 518.046875 1687.214844 530.148438 1667.910156 547.90625 1653.949219 C 548.378906 1645.8125 554.675781 1643.496094 556.519531 1636.726562 C 593.636719 1612.125 622.3125 1579.078125 662.042969 1557.078125 C 670.882812 1550.847656 674.609375 1539.503906 681.421875 1531.246094 C 682.964844 1525.402344 671.265625 1532.789062 672.808594 1526.945312 C 672.125 1521.953125 673.15625 1518.679688 674.964844 1516.179688 C 679.964844 1516.921875 685.054688 1517.574219 683.578125 1524.789062 C 697.148438 1505.59375 720.097656 1493.765625 739.566406 1477.433594 C 770.933594 1451.117188 795.027344 1415.359375 823.558594 1380.5625 C 796.074219 1366.769531 816.773438 1336.9375 830.015625 1322.441406 C 813.113281 1312.707031 791.585938 1333.734375 774.027344 1337.507812 C 766.253906 1347.679688 751.917969 1351.285156 743.875 1361.183594 C 754.699219 1368.339844 760.472656 1352 767.566406 1348.269531 C 778.765625 1349.988281 790.300781 1351.375 791.253906 1363.339844 C 783.808594 1365.039062 782.164062 1360.945312 778.335938 1359.03125 C 776.40625 1367.542969 769.992188 1363.386719 765.414062 1365.488281 C 761.511719 1373.242188 765.792969 1371.832031 767.566406 1378.40625 C 752.476562 1381.242188 741.792969 1387.648438 743.875 1404.234375 C 733.351562 1403.765625 731.628906 1412.082031 728.804688 1419.304688 C 723.117188 1419.359375 715.308594 1417.292969 718.035156 1425.761719 C 711.046875 1427.007812 708.015625 1424.292969 702.960938 1423.605469 C 697.636719 1425.457031 703.59375 1438.589844 698.65625 1440.828125 C 683.933594 1431.316406 682.59375 1455.148438 670.660156 1447.285156 C 673.441406 1453.664062 662.519531 1453.429688 662.046875 1462.351562 C 658.917969 1461.175781 650.917969 1464.867188 651.28125 1460.199219 C 648.359375 1460.867188 649.496094 1465.589844 649.125 1468.808594 C 644.132812 1469.496094 640.855469 1468.464844 638.355469 1466.65625 C 630.324219 1476.128906 629.296875 1480.820312 629.742188 1490.332031 C 622.945312 1491.386719 622.136719 1486.457031 614.671875 1488.179688 C 614.765625 1491.863281 613.070312 1493.757812 610.363281 1494.636719 C 613.472656 1497.988281 619.039062 1498.882812 616.824219 1507.554688 C 611.476562 1507.875 607.886719 1506.441406 606.054688 1503.25 C 601.585938 1503.800781 605.46875 1512.707031 601.75 1514.015625 C 598.890625 1511.851562 593.738281 1511.980469 593.136719 1507.558594 C 589.28125 1510.878906 582.347656 1511.125 584.523438 1520.472656 C 575.136719 1517.550781 576.734375 1525.601562 571.601562 1526.929688 C 563.269531 1528.804688 563.9375 1521.671875 558.683594 1520.472656 C 557.402344 1529.632812 550.148438 1524.636719 554.375 1535.542969 C 545.636719 1536.917969 537.585938 1550.246094 528.53125 1544.152344 C 529.5625 1551.847656 529.785156 1558.328125 528.53125 1567.828125 C 520.402344 1568.78125 518.421875 1563.585938 513.457031 1561.371094 C 515.265625 1563.871094 516.300781 1567.144531 515.613281 1572.136719 C 509.988281 1571.535156 504.835938 1571.410156 507 1578.59375 C 501.6875 1578.878906 496.621094 1578.917969 494.078125 1576.441406 C 489.441406 1578.265625 486.460938 1581.742188 487.617188 1589.355469 C 480.625 1590.605469 477.597656 1587.890625 472.542969 1587.203125 C 462.535156 1589.398438 459.101562 1598.167969 451.003906 1602.269531 C 449.070312 1601.699219 446.425781 1602.988281 444.546875 1602.269531 C 433.542969 1598.085938 425.644531 1592.363281 416.554688 1587.203125 C 415.96875 1598.847656 414.703125 1600.023438 416.554688 1610.882812 C 407.347656 1617.046875 396.832031 1604.632812 392.867188 1604.429688 C 387.109375 1604.128906 385.28125 1609.898438 379.945312 1608.730469 C 372.253906 1607.054688 364.207031 1604.113281 358.40625 1595.816406 C 357.394531 1584.757812 362.417969 1579.734375 373.480469 1580.75 L 373.480469 1563.53125 C 378.816406 1558.363281 396.597656 1556.675781 401.476562 1563.53125 C 385.214844 1533.859375 376.269531 1496.878906 347.640625 1479.574219 C 349.613281 1462.535156 336.71875 1460.347656 332.5625 1449.433594 C 323.953125 1453.023438 330.121094 1471.390625 328.257812 1481.726562 C 318.21875 1484.582031 318.695312 1476.929688 315.335938 1473.113281 C 317.09375 1438.503906 324.273438 1418.316406 341.179688 1395.617188 C 347.707031 1386.855469 359.574219 1381.277344 364.867188 1374.089844 C 368.519531 1369.132812 378.605469 1349.90625 377.789062 1343.953125 C 375.84375 1329.808594 349.269531 1319.125 339.023438 1305.203125 C 328.519531 1290.929688 328.03125 1280 321.796875 1262.148438 C 315.367188 1282.273438 297.890625 1291.351562 289.496094 1309.507812 C 291.773438 1315.121094 300.78125 1314.007812 302.414062 1320.269531 C 307.75 1314.972656 296.308594 1315.449219 298.109375 1307.351562 C 306.347656 1308.414062 304.984375 1299.875 315.335938 1303.050781 C 314.632812 1298.007812 305.941406 1300.960938 304.570312 1296.59375 C 308.070312 1292.195312 307.699219 1283.933594 315.335938 1283.675781 C 321.214844 1282.109375 319.671875 1287.949219 323.949219 1287.984375 C 319.324219 1299.28125 324.554688 1298.738281 323.949219 1313.8125 C 313.816406 1307.117188 318.816406 1319.316406 308.875 1318.121094 C 311.613281 1323.273438 325.421875 1317.367188 323.949219 1326.730469 C 322.988281 1338.328125 312.851562 1328.140625 304.570312 1333.1875 C 305.300781 1337.507812 304.128906 1339.921875 300.261719 1339.640625 C 302.089844 1342.839844 307.199219 1342.757812 311.03125 1343.949219 C 308.347656 1353.054688 303.523438 1348.824219 306.722656 1361.167969 C 295.414062 1362.425781 290.417969 1357.375 278.726562 1359.015625 C 288.789062 1361.179688 286.886719 1365.527344 285.1875 1376.234375 L 274.421875 1376.234375 C 273.660156 1378.933594 273.574219 1387.882812 272.265625 1395.609375 C 269.492188 1398.574219 262.914062 1397.742188 257.195312 1397.765625 C 258.59375 1399.953125 262.148438 1399.992188 261.503906 1404.222656 C 258.960938 1406.699219 253.886719 1406.65625 248.578125 1406.375 C 251.085938 1411.179688 247.574219 1416.539062 246.425781 1427.902344 C 241.429688 1428.589844 238.15625 1427.558594 235.65625 1425.75 C 236.082031 1435.980469 223.5625 1435.65625 229.203125 1445.121094 C 217.492188 1444.175781 220.726562 1458.179688 207.664062 1455.882812 L 207.664062 1464.492188 C 199.96875 1464.695312 196.03125 1468.652344 194.742188 1475.257812 C 184.171875 1476.171875 178.429688 1481.910156 177.515625 1492.476562 C 166.082031 1488.9375 166.96875 1497.722656 164.59375 1503.242188 C 160.734375 1503.515625 160.050781 1500.605469 155.980469 1501.089844 C 139.019531 1514.996094 127.4375 1534.269531 106.449219 1544.144531 C 105.371094 1554.855469 106.890625 1556.964844 104.292969 1563.515625 L 84.910156 1563.515625 C 80.792969 1574.097656 92.070312 1569.277344 91.371094 1576.429688 C 92.871094 1585.917969 82.414062 1579.984375 80.605469 1580.738281 C 77.03125 1582.226562 75.988281 1592.203125 67.683594 1587.195312 C 66.859375 1604.125 65.386719 1610.535156 69.839844 1623.789062 C 80.445312 1623.230469 90.773438 1622.957031 89.21875 1634.554688 C 87.125 1634.613281 87.546875 1637.1875 87.066406 1638.855469 C 74.824219 1639.617188 68.585938 1634.371094 56.917969 1634.554688 C 55.859375 1649.960938 74.671875 1645.507812 74.148438 1660.382812 C 65.335938 1666.984375 56.824219 1662.441406 43.996094 1662.539062 C 37.246094 1670.855469 23.890625 1672.578125 7.386719 1671.148438 C 6.683594 1657.816406 9.230469 1649.371094 13.847656 1634.554688 C 1.34375 1646.714844 -3.433594 1628.296875 -16.300781 1628.097656 C -17.3125 1615.605469 -9.707031 1611.730469 3.078125 1613.027344 C 3.40625 1618.382812 -0.304688 1619.691406 -1.230469 1623.792969 C 17.320312 1610.046875 24.488281 1584.921875 33.226562 1561.363281 C 48.019531 1552.164062 48.058594 1535.125 56.914062 1522.617188 C 74.65625 1497.558594 105.449219 1486.265625 123.671875 1462.339844 C 128.175781 1463.25 129.375 1460.863281 132.289062 1460.1875 C 169.617188 1430.015625 198.589844 1390.726562 237.8125 1359.007812 C 246.386719 1352.074219 253.46875 1343.382812 261.5 1335.332031 C 259.769531 1327.863281 264.707031 1327.054688 263.652344 1320.265625 C 278.507812 1304.972656 284.972656 1281.300781 304.570312 1270.753906 C 313.789062 1236.914062 319.382812 1199.453125 336.871094 1173.882812 C 357.171875 1169.777344 365.464844 1153.667969 375.636719 1139.441406 C 361.691406 1140.367188 356.683594 1141.742188 339.027344 1141.59375 C 339.648438 1131.640625 322.855469 1139.101562 326.105469 1126.527344 C 299.910156 1127.597656 278.132812 1124.25 276.574219 1100.691406 C 297.140625 1093.882812 324.230469 1094.128906 356.257812 1094.238281 C 360.679688 1093.636719 360.550781 1088.484375 362.714844 1085.625 C 384.144531 1085.523438 399.25 1079.09375 420.859375 1079.167969 C 439.085938 1068.132812 489.035156 1070.390625 519.921875 1066.253906 C 553.460938 1061.757812 586.382812 1070.910156 610.371094 1061.949219 C 643.5625 1074.597656 677.96875 1065.761719 707.28125 1068.40625 C 716.585938 1069.246094 737.53125 1073.519531 748.195312 1079.164062 C 753.5 1081.976562 765.167969 1087.210938 778.34375 1085.621094 L 778.34375 1092.078125 C 787.472656 1093.714844 803.847656 1088.109375 806.339844 1096.386719 C 801.214844 1109.632812 781.152344 1099.488281 767.574219 1098.539062 C 755.800781 1097.710938 745.863281 1100.378906 737.425781 1098.539062 C 753.152344 1111.933594 773.050781 1113.632812 789.113281 1126.523438 C 792.644531 1129.355469 794.3125 1134.570312 797.726562 1137.285156 C 806.441406 1144.21875 816.75 1147.746094 823.566406 1156.660156 C 825.109375 1158.675781 825.1875 1163.492188 827.871094 1167.417969 C 838.832031 1183.464844 842.890625 1211.617188 836.484375 1238.457031 C 828.046875 1273.84375 792.949219 1294.636719 778.339844 1324.566406 C 799.414062 1314.773438 819.886719 1304.386719 853.714844 1307.34375 C 860.046875 1313.929688 868.535156 1318.359375 877.402344 1322.410156 C 870.742188 1341.347656 856.050781 1367.144531 840.792969 1382.6875 C 837.230469 1386.316406 831.203125 1387.40625 827.871094 1391.296875 C 808.238281 1414.222656 796.152344 1445.457031 769.726562 1462.335938 C 774.507812 1541.742188 722.234375 1564.113281 709.425781 1625.941406 C 695.507812 1632.832031 687.207031 1645.34375 677.125 1656.078125 C 665.101562 1657.691406 657.375 1663.605469 651.28125 1671.144531 C 612.289062 1682.546875 585.257812 1709.171875 554.375 1733.574219 C 535.738281 1748.300781 524.507812 1766.699219 498.382812 1778.777344 C 492.921875 1781.300781 487.523438 1786.261719 483.308594 1787.390625 C 463.195312 1792.761719 440.289062 1790.796875 420.855469 1796 C 365.191406 1810.902344 306.957031 1833.675781 248.574219 1851.96875 C 244.871094 1853.128906 241.839844 1857.042969 237.808594 1858.425781 C 182.089844 1877.542969 108.570312 1865.273438 46.140625 1886.410156 C 35.699219 1889.945312 26.28125 1900.101562 13.839844 1892.867188 C 12.285156 1886.289062 16.042969 1885.019531 15.996094 1879.949219 C 82.257812 1856.625 158.832031 1860.1875 227.039062 1845.507812 C 239.230469 1842.886719 253.628906 1837.042969 265.804688 1832.589844 C 309.804688 1816.511719 355.710938 1801.132812 403.632812 1787.386719 C 432.484375 1779.109375 467.957031 1785.789062 498.386719 1768.011719 C 557.703125 1731.867188 569.296875 1648.019531 625.449219 1608.710938 C 628.832031 1602.09375 632.859375 1596.070312 638.355469 1591.519531 Z M 683.582031 1625.964844 C 699.886719 1609.339844 705.011719 1590.808594 720.191406 1565.6875 C 738.375 1535.609375 757.230469 1515.34375 758.957031 1475.277344 C 737.484375 1489.6875 719.976562 1508.066406 700.8125 1524.789062 C 705.175781 1529.035156 719.199219 1523.625 715.882812 1535.550781 C 708.039062 1536.214844 701.871094 1535.210938 696.503906 1533.398438 C 696.019531 1537.464844 698.929688 1538.148438 698.65625 1542.007812 C 687.382812 1543.300781 693.878906 1549.734375 687.890625 1557.074219 C 690.425781 1557.414062 694.003906 1556.707031 694.347656 1559.230469 C 692.699219 1566.90625 679.519531 1563.0625 674.964844 1567.839844 C 682.382812 1566.167969 685.253906 1569.039062 683.582031 1576.449219 L 668.507812 1576.449219 C 674.917969 1589.734375 670.613281 1599.863281 657.738281 1604.433594 C 662.925781 1610.765625 649.339844 1611.753906 655.585938 1621.65625 L 646.972656 1621.65625 C 646.488281 1625.722656 649.398438 1626.402344 649.125 1630.265625 C 639.085938 1627.40625 639.566406 1635.058594 636.203125 1638.875 C 627.894531 1639.183594 617.289062 1637.191406 614.671875 1643.179688 C 618.457031 1644.417969 627.324219 1640.578125 627.589844 1645.332031 L 627.589844 1651.789062 C 620.082031 1649.667969 613.945312 1660.777344 601.746094 1660.398438 C 606.609375 1665.402344 596.398438 1673.605469 586.675781 1671.164062 C 582.765625 1682.144531 563.058594 1703.300781 567.292969 1707.757812 C 598.625 1673.082031 650.03125 1660.175781 683.582031 1625.964844 Z M 18.136719 1625.964844 C 17.625 1629.035156 14.59375 1629.59375 13.832031 1632.421875 C 18.265625 1634.308594 23.5 1626.839844 18.136719 1625.964844 Z M 35.367188 1597.980469 C 33.578125 1603.371094 29.464844 1606.433594 28.910156 1613.046875 C 36.308594 1614.566406 40.949219 1602.320312 35.367188 1597.980469 Z M 446.695312 1582.910156 C 447.183594 1586.726562 444.523438 1593.6875 451 1591.519531 C 451.601562 1586.617188 450.480469 1583.429688 446.695312 1582.910156 Z M 48.285156 1572.144531 C 47.1875 1578.222656 43.078125 1581.289062 41.828125 1587.214844 L 48.285156 1587.214844 C 45.449219 1580.546875 54.671875 1575.277344 48.285156 1572.144531 Z M 420.847656 1572.144531 C 421.851562 1576.261719 414.210938 1581.410156 423.003906 1580.757812 C 422.636719 1577.539062 423.773438 1572.8125 420.847656 1572.144531 Z M 69.824219 1544.164062 C 62.273438 1549.578125 51.820312 1563.421875 52.59375 1569.996094 C 58.070312 1561.117188 65.503906 1554.199219 69.824219 1544.164062 Z M 444.535156 1546.316406 C 448.03125 1544.773438 448.03125 1556.464844 444.535156 1554.925781 C 425.433594 1548.90625 419.960938 1529.261719 399.3125 1524.789062 C 397.066406 1535.640625 410.542969 1530.785156 412.234375 1537.703125 C 405.679688 1546.03125 409.773438 1559.027344 420.847656 1561.378906 C 421.214844 1558.160156 420.082031 1553.433594 423.003906 1552.769531 C 439.023438 1555.410156 451.207031 1561.890625 463.917969 1567.835938 C 468.832031 1557.671875 450.027344 1545.640625 444.535156 1546.316406 Z M 457.457031 1539.859375 C 468.1875 1543.484375 471.121094 1554.902344 481.148438 1559.230469 C 491.085938 1556.195312 495.328125 1541.0625 504.835938 1544.164062 C 493.480469 1540.3125 468.796875 1529.707031 457.457031 1539.859375 Z M 95.664062 1524.789062 L 95.664062 1516.179688 C 111.550781 1508.382812 119.863281 1493.011719 140.886719 1490.347656 C 136.96875 1478.535156 149.859375 1483.53125 149.5 1475.28125 C 121.359375 1487.339844 88.523438 1513.347656 69.820312 1542.015625 C 79.753906 1537.589844 82.480469 1525.960938 95.664062 1524.789062 Z M 519.914062 1520.484375 C 525.148438 1525.6875 539.152344 1502.453125 537.140625 1507.566406 C 525.199219 1515.003906 508.179688 1517.367188 500.53125 1529.09375 C 505.585938 1529.78125 508.613281 1532.492188 515.605469 1531.246094 C 515.289062 1525.90625 515.207031 1520.800781 519.914062 1520.484375 Z M 379.933594 1490.347656 C 395.527344 1495.46875 409.691406 1503.433594 423.007812 1509.71875 C 439.898438 1517.691406 456.574219 1515.425781 481.152344 1518.328125 C 505.390625 1493.765625 540.800781 1480.363281 578.0625 1468.816406 C 592.824219 1436.929688 615.464844 1412.925781 636.207031 1387.011719 C 551.300781 1406.058594 448.476562 1391.167969 388.546875 1350.417969 C 382.847656 1372.785156 375.140625 1380.46875 362.707031 1395.621094 C 354.933594 1405.101562 342.832031 1416.394531 339.015625 1423.605469 C 336.640625 1428.097656 337.320312 1434.128906 334.710938 1438.675781 C 354.855469 1450.835938 367.71875 1470.265625 379.933594 1490.347656 Z M 578.058594 1496.804688 C 570.230469 1485.417969 554.472656 1501.386719 545.753906 1503.261719 C 560.839844 1505.371094 566.128906 1491.28125 578.058594 1496.804688 Z M 608.207031 1460.207031 C 603.527344 1468.445312 594.125 1471.960938 590.980469 1481.734375 C 595.277344 1483.894531 594.378906 1491.253906 601.746094 1490.347656 C 603.292969 1481.070312 609.226562 1464.886719 608.207031 1460.207031 Z M 158.117188 1466.667969 C 154.410156 1466.550781 152.597656 1468.324219 151.660156 1470.972656 C 155.363281 1471.085938 157.179688 1469.316406 158.117188 1466.667969 Z M 164.578125 1458.054688 C 153.503906 1463.257812 171.992188 1463.617188 164.578125 1458.054688 Z M 679.273438 1419.308594 C 655.644531 1428.433594 628.542969 1441.703125 612.515625 1458.054688 C 633.121094 1450.667969 643.753906 1433.3125 670.660156 1432.222656 C 671.195312 1424.148438 683.070312 1427.40625 683.582031 1419.308594 C 691.597656 1422.15625 698.058594 1413.929688 705.117188 1415.003906 C 697.144531 1406.742188 686.492188 1416.519531 679.273438 1419.308594 Z M 205.496094 1423.613281 C 204.019531 1416.394531 209.109375 1415.742188 214.113281 1415.003906 C 213.71875 1401.039062 232.753906 1399.679688 229.1875 1389.167969 C 234.925781 1387.730469 242.503906 1388.132812 239.949219 1378.410156 C 243.703125 1376.417969 251.507812 1378.480469 250.714844 1371.953125 C 213.289062 1389.789062 194.140625 1425.902344 168.882812 1455.90625 C 188.636719 1452.683594 186.460938 1427.542969 205.496094 1423.613281 Z M 750.34375 1268.617188 C 750.222656 1271.367188 747.585938 1271.597656 748.1875 1275.074219 C 735.304688 1266.878906 733.730469 1295.179688 722.347656 1287.992188 C 724.960938 1279.125 732.59375 1275.273438 737.421875 1268.617188 C 730.667969 1270.519531 715.992188 1283.042969 709.425781 1292.296875 C 713.964844 1295.652344 721.363281 1296.144531 722.347656 1303.058594 C 719.605469 1308.925781 713.902344 1311.839844 707.273438 1313.820312 C 706.929688 1327.261719 685.238281 1344.097656 687.890625 1361.179688 L 679.277344 1361.179688 C 680.78125 1373.445312 676.246094 1379.675781 668.511719 1382.707031 C 674.265625 1394.882812 664.914062 1393.582031 664.203125 1404.234375 C 668.4375 1403.589844 668.476562 1407.140625 670.664062 1408.539062 C 687.117188 1404.550781 689.050781 1395.738281 698.660156 1384.859375 C 701.554688 1381.589844 707.792969 1380.035156 711.582031 1376.25 C 715.078125 1372.753906 716.664062 1366.582031 720.195312 1363.335938 C 736.003906 1348.789062 754.417969 1343.847656 758.960938 1322.433594 C 723.503906 1314.972656 751.675781 1266.09375 769.726562 1260.007812 C 777.851562 1262.652344 786.921875 1264.347656 797.722656 1264.3125 C 792.480469 1241.414062 740.703125 1252.617188 741.730469 1266.464844 C 742.320312 1261.390625 749.75 1266.660156 750.34375 1268.617188 Z M 739.574219 1363.339844 C 727.671875 1375.832031 713.5625 1386.125 702.964844 1399.929688 C 706.183594 1400.371094 719.363281 1401.761719 722.347656 1399.929688 C 714.457031 1384.09375 744.9375 1376.652344 739.574219 1363.339844 Z M 597.441406 1382.710938 C 592.742188 1383.101562 590.589844 1380.953125 590.980469 1376.253906 C 617.496094 1368.519531 654.0625 1379.609375 657.738281 1352.578125 C 634.210938 1362.066406 605.941406 1366.816406 575.902344 1369.796875 C 566.023438 1363.066406 542.796875 1362.363281 532.835938 1367.644531 C 549.492188 1363.148438 572.296875 1372.996094 552.214844 1374.101562 C 518.515625 1375.957031 566.890625 1377.652344 560.832031 1378.410156 C 562.03125 1378.257812 563.367188 1372.074219 567.289062 1374.101562 C 567.324219 1377.65625 573.265625 1375.304688 573.75 1378.410156 C 568.949219 1383.65625 557.71875 1382.476562 552.214844 1387.019531 C 571.886719 1385.558594 584.894531 1388.753906 597.441406 1382.710938 Z M 427.308594 1352.574219 C 437.039062 1355.042969 447.230469 1357.058594 448.84375 1367.640625 C 459.949219 1369.5 476.023438 1377.730469 483.300781 1376.25 C 472.210938 1362.210938 444.277344 1353.570312 427.308594 1352.574219 Z M 623.285156 1124.390625 C 646.449219 1121.03125 677.6875 1101.34375 707.273438 1105.015625 C 707.917969 1109.246094 704.363281 1109.285156 702.964844 1111.472656 L 715.886719 1111.472656 C 723.285156 1127.757812 743.6875 1131.039062 748.1875 1150.21875 C 745.695312 1158.492188 729.324219 1152.890625 720.191406 1154.527344 L 720.191406 1148.070312 C 696.332031 1142.371094 678.292969 1134.734375 659.894531 1152.375 C 655.871094 1142.941406 656.882812 1150.011719 646.972656 1150.21875 C 639.859375 1145.933594 652.308594 1141.023438 646.972656 1139.460938 C 635.59375 1143.152344 630.746094 1153.378906 618.976562 1156.679688 C 616.46875 1156.316406 616.636719 1153.277344 616.820312 1150.222656 C 609.449219 1149.316406 610.347656 1156.671875 606.054688 1158.832031 C 601.777344 1147.308594 593.820312 1161.808594 588.824219 1152.375 C 589.464844 1147.996094 593.136719 1146.640625 595.285156 1143.765625 C 586.058594 1143.238281 582.527344 1159.601562 573.753906 1152.375 C 575.25 1138.769531 598.308594 1135.351562 597.441406 1126.546875 C 577.953125 1137.925781 563.78125 1154.609375 543.601562 1165.292969 C 538.789062 1152.5 554.933594 1149.476562 552.214844 1145.917969 C 540.632812 1150.84375 537.933594 1164.65625 524.222656 1167.445312 C 519.839844 1157.183594 532.8125 1153.265625 528.527344 1150.226562 C 513.65625 1159.035156 510.230469 1179.296875 491.921875 1184.671875 C 487.953125 1174.125 500.859375 1169.375 496.226562 1165.296875 C 488.289062 1171.714844 487.671875 1185.445312 474.6875 1186.824219 C 474.695312 1184.664062 472.945312 1184.265625 472.535156 1182.515625 C 473.503906 1177.601562 484.433594 1171.640625 478.996094 1167.449219 C 469.152344 1176.265625 463.621094 1189.398438 451 1195.433594 C 443.703125 1190.839844 455.667969 1183.710938 451 1182.515625 C 444.542969 1186.824219 445.269531 1198.316406 435.925781 1199.742188 C 429.464844 1181.480469 458.625 1169.570312 457.460938 1156.6875 C 448.085938 1169.414062 438.679688 1180.234375 429.464844 1193.28125 C 426.867188 1196.960938 428.835938 1208.964844 418.703125 1204.042969 C 416.871094 1198.582031 425.851562 1188.46875 420.855469 1193.28125 C 415.742188 1200.367188 409.34375 1206.171875 399.320312 1208.347656 C 396.726562 1191.367188 414.503906 1183.390625 410.085938 1171.753906 C 411.074219 1178.683594 404.46875 1177.945312 401.472656 1182.515625 C 394.277344 1193.503906 395.871094 1212.152344 384.242188 1219.109375 C 378.25 1220.082031 385.929688 1207.375 379.9375 1208.347656 C 375.964844 1222.316406 372.648438 1236.941406 371.324219 1253.554688 C 389.328125 1252.058594 375.105469 1282.78125 388.550781 1285.839844 C 388.886719 1283.304688 388.183594 1279.730469 390.707031 1279.382812 C 399.578125 1284.664062 397.886719 1294.910156 403.628906 1303.066406 C 409.800781 1311.832031 428.5625 1316.988281 420.855469 1331.046875 C 404.957031 1326.847656 402.027344 1309.683594 390.707031 1300.910156 C 395.207031 1318.046875 412.859375 1341.84375 435.929688 1341.808594 C 435.324219 1336.179688 436.71875 1332.550781 442.386719 1333.199219 C 454.5 1336.613281 468.039062 1343.921875 481.152344 1348.265625 C 486.886719 1350.164062 499.667969 1346.628906 500.535156 1356.878906 C 503.160156 1364.011719 482.894531 1359.0625 489.765625 1363.335938 C 502.832031 1361.402344 507.929688 1366.496094 500.535156 1374.09375 C 510.492188 1371.425781 521.835938 1378.488281 526.375 1374.09375 C 516.972656 1372.675781 516.425781 1367.144531 524.222656 1363.335938 C 519.757812 1362.054688 510.074219 1365.996094 509.148438 1361.179688 C 509.027344 1358.429688 506.390625 1358.203125 506.992188 1354.722656 C 525.878906 1345.652344 543.660156 1361.960938 571.597656 1354.722656 C 576.023438 1355.324219 575.898438 1360.476562 578.058594 1363.335938 C 629.523438 1350.203125 659.261719 1315.34375 687.890625 1279.382812 C 716.949219 1261.792969 739.835938 1238.027344 784.796875 1236.328125 C 800.902344 1214.527344 800.785156 1257.011719 808.488281 1264.3125 C 818.039062 1259.886719 823.117188 1244.375 825.714844 1232.023438 C 833.207031 1196.425781 824 1174.894531 806.332031 1156.679688 C 790.789062 1140.644531 775.730469 1131.621094 756.800781 1122.234375 C 735.105469 1111.476562 706.144531 1095.671875 681.429688 1089.949219 C 679.519531 1095.214844 670.933594 1093.804688 668.507812 1098.558594 C 678.03125 1100.089844 689.152344 1092.050781 696.503906 1098.558594 C 678.929688 1106.648438 643.546875 1112.164062 623.285156 1124.390625 Z M 862.328125 1331.046875 C 847.164062 1303.445312 825.082031 1345.046875 817.105469 1363.339844 C 837.785156 1385.039062 850.863281 1344.941406 862.328125 1331.046875 Z M 274.410156 1359.03125 C 267.78125 1348.808594 283.574219 1350.261719 276.5625 1339.65625 C 285.21875 1339.96875 282.257812 1334.136719 280.871094 1328.898438 C 286.578125 1328.863281 293.550781 1330.09375 293.789062 1324.589844 C 291.25 1322.113281 286.179688 1322.15625 280.871094 1322.4375 C 275.628906 1340.878906 266.261719 1355.195312 255.027344 1367.640625 C 265.300781 1368.582031 263.902344 1357.855469 274.410156 1359.03125 Z M 474.6875 1356.882812 C 457.328125 1348.570312 464.464844 1360.046875 474.6875 1356.882812 Z M 362.707031 1188.96875 C 370.433594 1187.761719 374.777344 1187.824219 373.472656 1173.902344 C 364.90625 1168.59375 365.425781 1188.019531 356.246094 1188.96875 C 334.046875 1234.128906 348.449219 1306.972656 382.085938 1328.894531 C 353.191406 1303.710938 340.703125 1233.011719 362.707031 1188.96875 Z M 373.472656 1300.910156 C 375.636719 1306.730469 382.644531 1318.882812 386.394531 1315.976562 C 381.210938 1311.832031 379.246094 1304.46875 373.472656 1300.910156 Z M 793.414062 1275.078125 C 785.234375 1274.644531 778.089844 1273.171875 771.878906 1270.769531 C 762.246094 1280.519531 752.132812 1289.78125 750.34375 1307.367188 C 772.46875 1330.273438 787.207031 1294.082031 793.414062 1275.078125 Z M 360.550781 1253.550781 C 355.40625 1265.207031 363.605469 1282.03125 369.164062 1290.144531 C 365.234375 1279.472656 368.289062 1259.652344 360.550781 1253.550781 Z M 373.472656 1275.078125 C 370.628906 1281.03125 381.984375 1282.46875 375.625 1279.382812 C 375.785156 1276.367188 375.144531 1271.148438 373.472656 1275.078125 Z M 392.855469 1182.511719 C 391.011719 1177.492188 400.382812 1173.238281 395.011719 1171.75 C 381.949219 1172.703125 372.460938 1198.933594 375.628906 1201.886719 C 381.078125 1195.917969 380.53125 1174.683594 392.855469 1182.511719 Z M 431.617188 1117.933594 C 444.683594 1101.570312 467.226562 1094.683594 487.609375 1085.640625 C 464.144531 1085.742188 449.1875 1097.816406 433.769531 1107.167969 C 428.554688 1110.332031 410.480469 1116.332031 418.695312 1120.085938 C 421.242188 1117.601562 426.308594 1117.648438 431.617188 1117.933594 Z M 670.660156 1085.640625 C 652.5625 1086.222656 628.136719 1069.539062 616.820312 1083.488281 C 622.339844 1085.824219 627.089844 1076.945312 629.742188 1083.488281 C 629.996094 1085.691406 620.453125 1087.84375 627.589844 1089.945312 C 633.769531 1088.160156 646.925781 1078.011719 651.277344 1087.792969 C 651.859375 1097.773438 624.335938 1090.898438 629.742188 1098.550781 C 638.617188 1095.855469 662.066406 1095.136719 670.660156 1085.640625 Z M 513.453125 1079.179688 C 509.382812 1080.136719 500.472656 1076.253906 502.683594 1083.488281 C 508.027344 1083.808594 513.136719 1083.886719 513.453125 1079.179688 Z M 513.453125 1079.179688 " fill-opacity="1" fill-rule="evenodd"/></g></svg>